M48
; DRILL file {KiCad 7.0.7} date 2023 August 18, Friday 08:54:36
; FORMAT={-:-/ absolute / inch / decimal}
; #@! TF.CreationDate,2023-08-18T08:54:36+02:00
; #@! TF.GenerationSoftware,Kicad,Pcbnew,7.0.7
; #@! TF.FileFunction,Plated,1,2,PTH
FMAT,2
INCH
; #@! TA.AperFunction,Plated,PTH,ViaDrill
T1C0.0157
; #@! TA.AperFunction,Plated,PTH,ComponentDrill
T2C0.0394
%
G90
G05
T1
X4.2879Y-3.2248
X4.3929Y-2.7948
X4.3929Y-2.8548
X4.4329Y-2.7948
X4.4329Y-2.8848
X4.4629Y-2.9648
X4.4779Y-2.7198
X4.487Y-2.524
X4.5079Y-2.7548
X4.5079Y-3.0048
X4.5079Y-3.0548
X4.5079Y-3.1548
X4.5179Y-3.3298
X4.5229Y-2.8198
X4.5929Y-3.0948
X4.5979Y-2.8198
X4.6129Y-2.7548
X4.6779Y-2.9648
X4.7029Y-2.6348
X4.7029Y-2.7548
X4.7053Y-3.1348
X4.7629Y-3.0048
X4.8129Y-3.1698
X4.8179Y-2.9298
X4.8179Y-3.3548
X4.8429Y-3.1398
X4.8429Y-3.1998
X4.8979Y-2.6348
X4.957Y-2.594
X5.0629Y-2.9298
X5.0629Y-3.3548
X5.2929Y-2.9298
X5.2929Y-3.3498
T2
X4.237Y-2.474
X4.237Y-2.574
X4.237Y-2.674
X4.237Y-2.774
X4.237Y-2.874
X4.237Y-2.974
X4.237Y-3.074
X4.237Y-3.174
X4.237Y-3.274
X4.237Y-3.374
X4.337Y-2.474
X4.337Y-2.574
X4.337Y-2.674
X4.337Y-2.774
X4.337Y-2.874
X4.337Y-2.974
X4.337Y-3.074
X4.337Y-3.174
X4.337Y-3.274
X4.337Y-3.374
T0
M30
