%TF.GenerationSoftware,KiCad,Pcbnew,7.0.7*%
%TF.CreationDate,2023-08-18T08:54:36+02:00*%
%TF.ProjectId,uSD-Turbo,7553442d-5475-4726-926f-2e6b69636164,rev?*%
%TF.SameCoordinates,Original*%
%TF.FileFunction,Legend,Top*%
%TF.FilePolarity,Positive*%
%FSLAX46Y46*%
G04 Gerber Fmt 4.6, Leading zero omitted, Abs format (unit mm)*
G04 Created by KiCad (PCBNEW 7.0.7) date 2023-08-18 08:54:36*
%MOMM*%
%LPD*%
G01*
G04 APERTURE LIST*
G04 Aperture macros list*
%AMRoundRect*
0 Rectangle with rounded corners*
0 $1 Rounding radius*
0 $2 $3 $4 $5 $6 $7 $8 $9 X,Y pos of 4 corners*
0 Add a 4 corners polygon primitive as box body*
4,1,4,$2,$3,$4,$5,$6,$7,$8,$9,$2,$3,0*
0 Add four circle primitives for the rounded corners*
1,1,$1+$1,$2,$3*
1,1,$1+$1,$4,$5*
1,1,$1+$1,$6,$7*
1,1,$1+$1,$8,$9*
0 Add four rect primitives between the rounded corners*
20,1,$1+$1,$2,$3,$4,$5,0*
20,1,$1+$1,$4,$5,$6,$7,0*
20,1,$1+$1,$6,$7,$8,$9,0*
20,1,$1+$1,$8,$9,$2,$3,0*%
G04 Aperture macros list end*
%ADD10C,0.150000*%
%ADD11C,0.120000*%
%ADD12RoundRect,0.150000X0.825000X0.150000X-0.825000X0.150000X-0.825000X-0.150000X0.825000X-0.150000X0*%
%ADD13R,1.500000X2.000000*%
%ADD14R,3.800000X2.000000*%
%ADD15RoundRect,0.225000X-0.225000X-0.250000X0.225000X-0.250000X0.225000X0.250000X-0.225000X0.250000X0*%
%ADD16RoundRect,0.225000X0.250000X-0.225000X0.250000X0.225000X-0.250000X0.225000X-0.250000X-0.225000X0*%
%ADD17R,0.700000X1.600000*%
%ADD18R,1.200000X1.400000*%
%ADD19R,1.200000X2.200000*%
%ADD20R,1.600000X1.400000*%
%ADD21RoundRect,0.200000X0.275000X-0.200000X0.275000X0.200000X-0.275000X0.200000X-0.275000X-0.200000X0*%
%ADD22RoundRect,0.200000X-0.275000X0.200000X-0.275000X-0.200000X0.275000X-0.200000X0.275000X0.200000X0*%
%ADD23RoundRect,0.200000X-0.200000X-0.275000X0.200000X-0.275000X0.200000X0.275000X-0.200000X0.275000X0*%
%ADD24RoundRect,0.200000X0.200000X0.275000X-0.200000X0.275000X-0.200000X-0.275000X0.200000X-0.275000X0*%
%ADD25R,1.700000X1.700000*%
%ADD26O,1.700000X1.700000*%
%ADD27RoundRect,0.218750X0.256250X-0.218750X0.256250X0.218750X-0.256250X0.218750X-0.256250X-0.218750X0*%
G04 APERTURE END LIST*
D10*
X122212493Y-62639819D02*
X122212493Y-63354104D01*
X122212493Y-63354104D02*
X122164874Y-63496961D01*
X122164874Y-63496961D02*
X122069636Y-63592200D01*
X122069636Y-63592200D02*
X121926779Y-63639819D01*
X121926779Y-63639819D02*
X121831541Y-63639819D01*
X122688684Y-63544580D02*
X122736303Y-63592200D01*
X122736303Y-63592200D02*
X122688684Y-63639819D01*
X122688684Y-63639819D02*
X122641065Y-63592200D01*
X122641065Y-63592200D02*
X122688684Y-63544580D01*
X122688684Y-63544580D02*
X122688684Y-63639819D01*
X123926779Y-63639819D02*
X123926779Y-62639819D01*
X123926779Y-63116009D02*
X124498207Y-63116009D01*
X124498207Y-63639819D02*
X124498207Y-62639819D01*
X124974398Y-63639819D02*
X124974398Y-62973152D01*
X124974398Y-62639819D02*
X124926779Y-62687438D01*
X124926779Y-62687438D02*
X124974398Y-62735057D01*
X124974398Y-62735057D02*
X125022017Y-62687438D01*
X125022017Y-62687438D02*
X124974398Y-62639819D01*
X124974398Y-62639819D02*
X124974398Y-62735057D01*
X125593445Y-63639819D02*
X125498207Y-63592200D01*
X125498207Y-63592200D02*
X125450588Y-63496961D01*
X125450588Y-63496961D02*
X125450588Y-62639819D01*
X125926779Y-63592200D02*
X126022017Y-63639819D01*
X126022017Y-63639819D02*
X126212493Y-63639819D01*
X126212493Y-63639819D02*
X126307731Y-63592200D01*
X126307731Y-63592200D02*
X126355350Y-63496961D01*
X126355350Y-63496961D02*
X126355350Y-63449342D01*
X126355350Y-63449342D02*
X126307731Y-63354104D01*
X126307731Y-63354104D02*
X126212493Y-63306485D01*
X126212493Y-63306485D02*
X126069636Y-63306485D01*
X126069636Y-63306485D02*
X125974398Y-63258866D01*
X125974398Y-63258866D02*
X125926779Y-63163628D01*
X125926779Y-63163628D02*
X125926779Y-63116009D01*
X125926779Y-63116009D02*
X125974398Y-63020771D01*
X125974398Y-63020771D02*
X126069636Y-62973152D01*
X126069636Y-62973152D02*
X126212493Y-62973152D01*
X126212493Y-62973152D02*
X126307731Y-63020771D01*
X127212493Y-63639819D02*
X127212493Y-62639819D01*
X127212493Y-63592200D02*
X127117255Y-63639819D01*
X127117255Y-63639819D02*
X126926779Y-63639819D01*
X126926779Y-63639819D02*
X126831541Y-63592200D01*
X126831541Y-63592200D02*
X126783922Y-63544580D01*
X126783922Y-63544580D02*
X126736303Y-63449342D01*
X126736303Y-63449342D02*
X126736303Y-63163628D01*
X126736303Y-63163628D02*
X126783922Y-63068390D01*
X126783922Y-63068390D02*
X126831541Y-63020771D01*
X126831541Y-63020771D02*
X126926779Y-62973152D01*
X126926779Y-62973152D02*
X127117255Y-62973152D01*
X127117255Y-62973152D02*
X127212493Y-63020771D01*
X127831541Y-63639819D02*
X127736303Y-63592200D01*
X127736303Y-63592200D02*
X127688684Y-63544580D01*
X127688684Y-63544580D02*
X127641065Y-63449342D01*
X127641065Y-63449342D02*
X127641065Y-63163628D01*
X127641065Y-63163628D02*
X127688684Y-63068390D01*
X127688684Y-63068390D02*
X127736303Y-63020771D01*
X127736303Y-63020771D02*
X127831541Y-62973152D01*
X127831541Y-62973152D02*
X127974398Y-62973152D01*
X127974398Y-62973152D02*
X128069636Y-63020771D01*
X128069636Y-63020771D02*
X128117255Y-63068390D01*
X128117255Y-63068390D02*
X128164874Y-63163628D01*
X128164874Y-63163628D02*
X128164874Y-63449342D01*
X128164874Y-63449342D02*
X128117255Y-63544580D01*
X128117255Y-63544580D02*
X128069636Y-63592200D01*
X128069636Y-63592200D02*
X127974398Y-63639819D01*
X127974398Y-63639819D02*
X127831541Y-63639819D01*
X128593446Y-63639819D02*
X128593446Y-62973152D01*
X128593446Y-63163628D02*
X128641065Y-63068390D01*
X128641065Y-63068390D02*
X128688684Y-63020771D01*
X128688684Y-63020771D02*
X128783922Y-62973152D01*
X128783922Y-62973152D02*
X128879160Y-62973152D01*
X129069637Y-62973152D02*
X129450589Y-62973152D01*
X129212494Y-63639819D02*
X129212494Y-62782676D01*
X129212494Y-62782676D02*
X129260113Y-62687438D01*
X129260113Y-62687438D02*
X129355351Y-62639819D01*
X129355351Y-62639819D02*
X129450589Y-62639819D01*
X121926779Y-64583152D02*
X121926779Y-65583152D01*
X122402969Y-65106961D02*
X122450588Y-65202200D01*
X122450588Y-65202200D02*
X122545826Y-65249819D01*
X121926779Y-65106961D02*
X121974398Y-65202200D01*
X121974398Y-65202200D02*
X122069636Y-65249819D01*
X122069636Y-65249819D02*
X122260112Y-65249819D01*
X122260112Y-65249819D02*
X122355350Y-65202200D01*
X122355350Y-65202200D02*
X122402969Y-65106961D01*
X122402969Y-65106961D02*
X122402969Y-64583152D01*
X122926779Y-65202200D02*
X123069636Y-65249819D01*
X123069636Y-65249819D02*
X123307731Y-65249819D01*
X123307731Y-65249819D02*
X123402969Y-65202200D01*
X123402969Y-65202200D02*
X123450588Y-65154580D01*
X123450588Y-65154580D02*
X123498207Y-65059342D01*
X123498207Y-65059342D02*
X123498207Y-64964104D01*
X123498207Y-64964104D02*
X123450588Y-64868866D01*
X123450588Y-64868866D02*
X123402969Y-64821247D01*
X123402969Y-64821247D02*
X123307731Y-64773628D01*
X123307731Y-64773628D02*
X123117255Y-64726009D01*
X123117255Y-64726009D02*
X123022017Y-64678390D01*
X123022017Y-64678390D02*
X122974398Y-64630771D01*
X122974398Y-64630771D02*
X122926779Y-64535533D01*
X122926779Y-64535533D02*
X122926779Y-64440295D01*
X122926779Y-64440295D02*
X122974398Y-64345057D01*
X122974398Y-64345057D02*
X123022017Y-64297438D01*
X123022017Y-64297438D02*
X123117255Y-64249819D01*
X123117255Y-64249819D02*
X123355350Y-64249819D01*
X123355350Y-64249819D02*
X123498207Y-64297438D01*
X123926779Y-65249819D02*
X123926779Y-64249819D01*
X123926779Y-64249819D02*
X124164874Y-64249819D01*
X124164874Y-64249819D02*
X124307731Y-64297438D01*
X124307731Y-64297438D02*
X124402969Y-64392676D01*
X124402969Y-64392676D02*
X124450588Y-64487914D01*
X124450588Y-64487914D02*
X124498207Y-64678390D01*
X124498207Y-64678390D02*
X124498207Y-64821247D01*
X124498207Y-64821247D02*
X124450588Y-65011723D01*
X124450588Y-65011723D02*
X124402969Y-65106961D01*
X124402969Y-65106961D02*
X124307731Y-65202200D01*
X124307731Y-65202200D02*
X124164874Y-65249819D01*
X124164874Y-65249819D02*
X123926779Y-65249819D01*
X125545827Y-64249819D02*
X126117255Y-64249819D01*
X125831541Y-65249819D02*
X125831541Y-64249819D01*
X126879160Y-64583152D02*
X126879160Y-65249819D01*
X126450589Y-64583152D02*
X126450589Y-65106961D01*
X126450589Y-65106961D02*
X126498208Y-65202200D01*
X126498208Y-65202200D02*
X126593446Y-65249819D01*
X126593446Y-65249819D02*
X126736303Y-65249819D01*
X126736303Y-65249819D02*
X126831541Y-65202200D01*
X126831541Y-65202200D02*
X126879160Y-65154580D01*
X127355351Y-65249819D02*
X127355351Y-64583152D01*
X127355351Y-64773628D02*
X127402970Y-64678390D01*
X127402970Y-64678390D02*
X127450589Y-64630771D01*
X127450589Y-64630771D02*
X127545827Y-64583152D01*
X127545827Y-64583152D02*
X127641065Y-64583152D01*
X127974399Y-65249819D02*
X127974399Y-64249819D01*
X127974399Y-64630771D02*
X128069637Y-64583152D01*
X128069637Y-64583152D02*
X128260113Y-64583152D01*
X128260113Y-64583152D02*
X128355351Y-64630771D01*
X128355351Y-64630771D02*
X128402970Y-64678390D01*
X128402970Y-64678390D02*
X128450589Y-64773628D01*
X128450589Y-64773628D02*
X128450589Y-65059342D01*
X128450589Y-65059342D02*
X128402970Y-65154580D01*
X128402970Y-65154580D02*
X128355351Y-65202200D01*
X128355351Y-65202200D02*
X128260113Y-65249819D01*
X128260113Y-65249819D02*
X128069637Y-65249819D01*
X128069637Y-65249819D02*
X127974399Y-65202200D01*
X129022018Y-65249819D02*
X128926780Y-65202200D01*
X128926780Y-65202200D02*
X128879161Y-65154580D01*
X128879161Y-65154580D02*
X128831542Y-65059342D01*
X128831542Y-65059342D02*
X128831542Y-64773628D01*
X128831542Y-64773628D02*
X128879161Y-64678390D01*
X128879161Y-64678390D02*
X128926780Y-64630771D01*
X128926780Y-64630771D02*
X129022018Y-64583152D01*
X129022018Y-64583152D02*
X129164875Y-64583152D01*
X129164875Y-64583152D02*
X129260113Y-64630771D01*
X129260113Y-64630771D02*
X129307732Y-64678390D01*
X129307732Y-64678390D02*
X129355351Y-64773628D01*
X129355351Y-64773628D02*
X129355351Y-65059342D01*
X129355351Y-65059342D02*
X129307732Y-65154580D01*
X129307732Y-65154580D02*
X129260113Y-65202200D01*
X129260113Y-65202200D02*
X129164875Y-65249819D01*
X129164875Y-65249819D02*
X129022018Y-65249819D01*
X131069637Y-65249819D02*
X130498209Y-65249819D01*
X130783923Y-65249819D02*
X130783923Y-64249819D01*
X130783923Y-64249819D02*
X130688685Y-64392676D01*
X130688685Y-64392676D02*
X130593447Y-64487914D01*
X130593447Y-64487914D02*
X130498209Y-64535533D01*
X131498209Y-65154580D02*
X131545828Y-65202200D01*
X131545828Y-65202200D02*
X131498209Y-65249819D01*
X131498209Y-65249819D02*
X131450590Y-65202200D01*
X131450590Y-65202200D02*
X131498209Y-65154580D01*
X131498209Y-65154580D02*
X131498209Y-65249819D01*
X132164875Y-64249819D02*
X132260113Y-64249819D01*
X132260113Y-64249819D02*
X132355351Y-64297438D01*
X132355351Y-64297438D02*
X132402970Y-64345057D01*
X132402970Y-64345057D02*
X132450589Y-64440295D01*
X132450589Y-64440295D02*
X132498208Y-64630771D01*
X132498208Y-64630771D02*
X132498208Y-64868866D01*
X132498208Y-64868866D02*
X132450589Y-65059342D01*
X132450589Y-65059342D02*
X132402970Y-65154580D01*
X132402970Y-65154580D02*
X132355351Y-65202200D01*
X132355351Y-65202200D02*
X132260113Y-65249819D01*
X132260113Y-65249819D02*
X132164875Y-65249819D01*
X132164875Y-65249819D02*
X132069637Y-65202200D01*
X132069637Y-65202200D02*
X132022018Y-65154580D01*
X132022018Y-65154580D02*
X131974399Y-65059342D01*
X131974399Y-65059342D02*
X131926780Y-64868866D01*
X131926780Y-64868866D02*
X131926780Y-64630771D01*
X131926780Y-64630771D02*
X131974399Y-64440295D01*
X131974399Y-64440295D02*
X132022018Y-64345057D01*
X132022018Y-64345057D02*
X132069637Y-64297438D01*
X132069637Y-64297438D02*
X132164875Y-64249819D01*
X119580095Y-74252819D02*
X119580095Y-75062342D01*
X119580095Y-75062342D02*
X119627714Y-75157580D01*
X119627714Y-75157580D02*
X119675333Y-75205200D01*
X119675333Y-75205200D02*
X119770571Y-75252819D01*
X119770571Y-75252819D02*
X119961047Y-75252819D01*
X119961047Y-75252819D02*
X120056285Y-75205200D01*
X120056285Y-75205200D02*
X120103904Y-75157580D01*
X120103904Y-75157580D02*
X120151523Y-75062342D01*
X120151523Y-75062342D02*
X120151523Y-74252819D01*
X121151523Y-75252819D02*
X120580095Y-75252819D01*
X120865809Y-75252819D02*
X120865809Y-74252819D01*
X120865809Y-74252819D02*
X120770571Y-74395676D01*
X120770571Y-74395676D02*
X120675333Y-74490914D01*
X120675333Y-74490914D02*
X120580095Y-74538533D01*
X119580095Y-65743819D02*
X119580095Y-66553342D01*
X119580095Y-66553342D02*
X119627714Y-66648580D01*
X119627714Y-66648580D02*
X119675333Y-66696200D01*
X119675333Y-66696200D02*
X119770571Y-66743819D01*
X119770571Y-66743819D02*
X119961047Y-66743819D01*
X119961047Y-66743819D02*
X120056285Y-66696200D01*
X120056285Y-66696200D02*
X120103904Y-66648580D01*
X120103904Y-66648580D02*
X120151523Y-66553342D01*
X120151523Y-66553342D02*
X120151523Y-65743819D01*
X120580095Y-65839057D02*
X120627714Y-65791438D01*
X120627714Y-65791438D02*
X120722952Y-65743819D01*
X120722952Y-65743819D02*
X120961047Y-65743819D01*
X120961047Y-65743819D02*
X121056285Y-65791438D01*
X121056285Y-65791438D02*
X121103904Y-65839057D01*
X121103904Y-65839057D02*
X121151523Y-65934295D01*
X121151523Y-65934295D02*
X121151523Y-66029533D01*
X121151523Y-66029533D02*
X121103904Y-66172390D01*
X121103904Y-66172390D02*
X120532476Y-66743819D01*
X120532476Y-66743819D02*
X121151523Y-66743819D01*
X119413333Y-64870580D02*
X119365714Y-64918200D01*
X119365714Y-64918200D02*
X119222857Y-64965819D01*
X119222857Y-64965819D02*
X119127619Y-64965819D01*
X119127619Y-64965819D02*
X118984762Y-64918200D01*
X118984762Y-64918200D02*
X118889524Y-64822961D01*
X118889524Y-64822961D02*
X118841905Y-64727723D01*
X118841905Y-64727723D02*
X118794286Y-64537247D01*
X118794286Y-64537247D02*
X118794286Y-64394390D01*
X118794286Y-64394390D02*
X118841905Y-64203914D01*
X118841905Y-64203914D02*
X118889524Y-64108676D01*
X118889524Y-64108676D02*
X118984762Y-64013438D01*
X118984762Y-64013438D02*
X119127619Y-63965819D01*
X119127619Y-63965819D02*
X119222857Y-63965819D01*
X119222857Y-63965819D02*
X119365714Y-64013438D01*
X119365714Y-64013438D02*
X119413333Y-64061057D01*
X119794286Y-64061057D02*
X119841905Y-64013438D01*
X119841905Y-64013438D02*
X119937143Y-63965819D01*
X119937143Y-63965819D02*
X120175238Y-63965819D01*
X120175238Y-63965819D02*
X120270476Y-64013438D01*
X120270476Y-64013438D02*
X120318095Y-64061057D01*
X120318095Y-64061057D02*
X120365714Y-64156295D01*
X120365714Y-64156295D02*
X120365714Y-64251533D01*
X120365714Y-64251533D02*
X120318095Y-64394390D01*
X120318095Y-64394390D02*
X119746667Y-64965819D01*
X119746667Y-64965819D02*
X120365714Y-64965819D01*
X124765580Y-67979666D02*
X124813200Y-68027285D01*
X124813200Y-68027285D02*
X124860819Y-68170142D01*
X124860819Y-68170142D02*
X124860819Y-68265380D01*
X124860819Y-68265380D02*
X124813200Y-68408237D01*
X124813200Y-68408237D02*
X124717961Y-68503475D01*
X124717961Y-68503475D02*
X124622723Y-68551094D01*
X124622723Y-68551094D02*
X124432247Y-68598713D01*
X124432247Y-68598713D02*
X124289390Y-68598713D01*
X124289390Y-68598713D02*
X124098914Y-68551094D01*
X124098914Y-68551094D02*
X124003676Y-68503475D01*
X124003676Y-68503475D02*
X123908438Y-68408237D01*
X123908438Y-68408237D02*
X123860819Y-68265380D01*
X123860819Y-68265380D02*
X123860819Y-68170142D01*
X123860819Y-68170142D02*
X123908438Y-68027285D01*
X123908438Y-68027285D02*
X123956057Y-67979666D01*
X123860819Y-67646332D02*
X123860819Y-67027285D01*
X123860819Y-67027285D02*
X124241771Y-67360618D01*
X124241771Y-67360618D02*
X124241771Y-67217761D01*
X124241771Y-67217761D02*
X124289390Y-67122523D01*
X124289390Y-67122523D02*
X124337009Y-67074904D01*
X124337009Y-67074904D02*
X124432247Y-67027285D01*
X124432247Y-67027285D02*
X124670342Y-67027285D01*
X124670342Y-67027285D02*
X124765580Y-67074904D01*
X124765580Y-67074904D02*
X124813200Y-67122523D01*
X124813200Y-67122523D02*
X124860819Y-67217761D01*
X124860819Y-67217761D02*
X124860819Y-67503475D01*
X124860819Y-67503475D02*
X124813200Y-67598713D01*
X124813200Y-67598713D02*
X124765580Y-67646332D01*
X122479580Y-67979666D02*
X122527200Y-68027285D01*
X122527200Y-68027285D02*
X122574819Y-68170142D01*
X122574819Y-68170142D02*
X122574819Y-68265380D01*
X122574819Y-68265380D02*
X122527200Y-68408237D01*
X122527200Y-68408237D02*
X122431961Y-68503475D01*
X122431961Y-68503475D02*
X122336723Y-68551094D01*
X122336723Y-68551094D02*
X122146247Y-68598713D01*
X122146247Y-68598713D02*
X122003390Y-68598713D01*
X122003390Y-68598713D02*
X121812914Y-68551094D01*
X121812914Y-68551094D02*
X121717676Y-68503475D01*
X121717676Y-68503475D02*
X121622438Y-68408237D01*
X121622438Y-68408237D02*
X121574819Y-68265380D01*
X121574819Y-68265380D02*
X121574819Y-68170142D01*
X121574819Y-68170142D02*
X121622438Y-68027285D01*
X121622438Y-68027285D02*
X121670057Y-67979666D01*
X121574819Y-67074904D02*
X121574819Y-67551094D01*
X121574819Y-67551094D02*
X122051009Y-67598713D01*
X122051009Y-67598713D02*
X122003390Y-67551094D01*
X122003390Y-67551094D02*
X121955771Y-67455856D01*
X121955771Y-67455856D02*
X121955771Y-67217761D01*
X121955771Y-67217761D02*
X122003390Y-67122523D01*
X122003390Y-67122523D02*
X122051009Y-67074904D01*
X122051009Y-67074904D02*
X122146247Y-67027285D01*
X122146247Y-67027285D02*
X122384342Y-67027285D01*
X122384342Y-67027285D02*
X122479580Y-67074904D01*
X122479580Y-67074904D02*
X122527200Y-67122523D01*
X122527200Y-67122523D02*
X122574819Y-67217761D01*
X122574819Y-67217761D02*
X122574819Y-67455856D01*
X122574819Y-67455856D02*
X122527200Y-67551094D01*
X122527200Y-67551094D02*
X122479580Y-67598713D01*
X114954819Y-63915666D02*
X114478628Y-64248999D01*
X114954819Y-64487094D02*
X113954819Y-64487094D01*
X113954819Y-64487094D02*
X113954819Y-64106142D01*
X113954819Y-64106142D02*
X114002438Y-64010904D01*
X114002438Y-64010904D02*
X114050057Y-63963285D01*
X114050057Y-63963285D02*
X114145295Y-63915666D01*
X114145295Y-63915666D02*
X114288152Y-63915666D01*
X114288152Y-63915666D02*
X114383390Y-63963285D01*
X114383390Y-63963285D02*
X114431009Y-64010904D01*
X114431009Y-64010904D02*
X114478628Y-64106142D01*
X114478628Y-64106142D02*
X114478628Y-64487094D01*
X113954819Y-63010904D02*
X113954819Y-63487094D01*
X113954819Y-63487094D02*
X114431009Y-63534713D01*
X114431009Y-63534713D02*
X114383390Y-63487094D01*
X114383390Y-63487094D02*
X114335771Y-63391856D01*
X114335771Y-63391856D02*
X114335771Y-63153761D01*
X114335771Y-63153761D02*
X114383390Y-63058523D01*
X114383390Y-63058523D02*
X114431009Y-63010904D01*
X114431009Y-63010904D02*
X114526247Y-62963285D01*
X114526247Y-62963285D02*
X114764342Y-62963285D01*
X114764342Y-62963285D02*
X114859580Y-63010904D01*
X114859580Y-63010904D02*
X114907200Y-63058523D01*
X114907200Y-63058523D02*
X114954819Y-63153761D01*
X114954819Y-63153761D02*
X114954819Y-63391856D01*
X114954819Y-63391856D02*
X114907200Y-63487094D01*
X114907200Y-63487094D02*
X114859580Y-63534713D01*
X135147819Y-67090666D02*
X134671628Y-67423999D01*
X135147819Y-67662094D02*
X134147819Y-67662094D01*
X134147819Y-67662094D02*
X134147819Y-67281142D01*
X134147819Y-67281142D02*
X134195438Y-67185904D01*
X134195438Y-67185904D02*
X134243057Y-67138285D01*
X134243057Y-67138285D02*
X134338295Y-67090666D01*
X134338295Y-67090666D02*
X134481152Y-67090666D01*
X134481152Y-67090666D02*
X134576390Y-67138285D01*
X134576390Y-67138285D02*
X134624009Y-67185904D01*
X134624009Y-67185904D02*
X134671628Y-67281142D01*
X134671628Y-67281142D02*
X134671628Y-67662094D01*
X134481152Y-66233523D02*
X135147819Y-66233523D01*
X134100200Y-66471618D02*
X134814485Y-66709713D01*
X134814485Y-66709713D02*
X134814485Y-66090666D01*
X132240333Y-68648819D02*
X131907000Y-68172628D01*
X131668905Y-68648819D02*
X131668905Y-67648819D01*
X131668905Y-67648819D02*
X132049857Y-67648819D01*
X132049857Y-67648819D02*
X132145095Y-67696438D01*
X132145095Y-67696438D02*
X132192714Y-67744057D01*
X132192714Y-67744057D02*
X132240333Y-67839295D01*
X132240333Y-67839295D02*
X132240333Y-67982152D01*
X132240333Y-67982152D02*
X132192714Y-68077390D01*
X132192714Y-68077390D02*
X132145095Y-68125009D01*
X132145095Y-68125009D02*
X132049857Y-68172628D01*
X132049857Y-68172628D02*
X131668905Y-68172628D01*
X132621286Y-67744057D02*
X132668905Y-67696438D01*
X132668905Y-67696438D02*
X132764143Y-67648819D01*
X132764143Y-67648819D02*
X133002238Y-67648819D01*
X133002238Y-67648819D02*
X133097476Y-67696438D01*
X133097476Y-67696438D02*
X133145095Y-67744057D01*
X133145095Y-67744057D02*
X133192714Y-67839295D01*
X133192714Y-67839295D02*
X133192714Y-67934533D01*
X133192714Y-67934533D02*
X133145095Y-68077390D01*
X133145095Y-68077390D02*
X132573667Y-68648819D01*
X132573667Y-68648819D02*
X133192714Y-68648819D01*
X136798819Y-67662094D02*
X135798819Y-67662094D01*
X135798819Y-67662094D02*
X135798819Y-67423999D01*
X135798819Y-67423999D02*
X135846438Y-67281142D01*
X135846438Y-67281142D02*
X135941676Y-67185904D01*
X135941676Y-67185904D02*
X136036914Y-67138285D01*
X136036914Y-67138285D02*
X136227390Y-67090666D01*
X136227390Y-67090666D02*
X136370247Y-67090666D01*
X136370247Y-67090666D02*
X136560723Y-67138285D01*
X136560723Y-67138285D02*
X136655961Y-67185904D01*
X136655961Y-67185904D02*
X136751200Y-67281142D01*
X136751200Y-67281142D02*
X136798819Y-67423999D01*
X136798819Y-67423999D02*
X136798819Y-67662094D01*
X136798819Y-66138285D02*
X136798819Y-66709713D01*
X136798819Y-66423999D02*
X135798819Y-66423999D01*
X135798819Y-66423999D02*
X135941676Y-66519237D01*
X135941676Y-66519237D02*
X136036914Y-66614475D01*
X136036914Y-66614475D02*
X136084533Y-66709713D01*
X132240333Y-70299819D02*
X131907000Y-69823628D01*
X131668905Y-70299819D02*
X131668905Y-69299819D01*
X131668905Y-69299819D02*
X132049857Y-69299819D01*
X132049857Y-69299819D02*
X132145095Y-69347438D01*
X132145095Y-69347438D02*
X132192714Y-69395057D01*
X132192714Y-69395057D02*
X132240333Y-69490295D01*
X132240333Y-69490295D02*
X132240333Y-69633152D01*
X132240333Y-69633152D02*
X132192714Y-69728390D01*
X132192714Y-69728390D02*
X132145095Y-69776009D01*
X132145095Y-69776009D02*
X132049857Y-69823628D01*
X132049857Y-69823628D02*
X131668905Y-69823628D01*
X132573667Y-69299819D02*
X133192714Y-69299819D01*
X133192714Y-69299819D02*
X132859381Y-69680771D01*
X132859381Y-69680771D02*
X133002238Y-69680771D01*
X133002238Y-69680771D02*
X133097476Y-69728390D01*
X133097476Y-69728390D02*
X133145095Y-69776009D01*
X133145095Y-69776009D02*
X133192714Y-69871247D01*
X133192714Y-69871247D02*
X133192714Y-70109342D01*
X133192714Y-70109342D02*
X133145095Y-70204580D01*
X133145095Y-70204580D02*
X133097476Y-70252200D01*
X133097476Y-70252200D02*
X133002238Y-70299819D01*
X133002238Y-70299819D02*
X132716524Y-70299819D01*
X132716524Y-70299819D02*
X132621286Y-70252200D01*
X132621286Y-70252200D02*
X132573667Y-70204580D01*
X119413333Y-63219580D02*
X119365714Y-63267200D01*
X119365714Y-63267200D02*
X119222857Y-63314819D01*
X119222857Y-63314819D02*
X119127619Y-63314819D01*
X119127619Y-63314819D02*
X118984762Y-63267200D01*
X118984762Y-63267200D02*
X118889524Y-63171961D01*
X118889524Y-63171961D02*
X118841905Y-63076723D01*
X118841905Y-63076723D02*
X118794286Y-62886247D01*
X118794286Y-62886247D02*
X118794286Y-62743390D01*
X118794286Y-62743390D02*
X118841905Y-62552914D01*
X118841905Y-62552914D02*
X118889524Y-62457676D01*
X118889524Y-62457676D02*
X118984762Y-62362438D01*
X118984762Y-62362438D02*
X119127619Y-62314819D01*
X119127619Y-62314819D02*
X119222857Y-62314819D01*
X119222857Y-62314819D02*
X119365714Y-62362438D01*
X119365714Y-62362438D02*
X119413333Y-62410057D01*
X120365714Y-63314819D02*
X119794286Y-63314819D01*
X120080000Y-63314819D02*
X120080000Y-62314819D01*
X120080000Y-62314819D02*
X119984762Y-62457676D01*
X119984762Y-62457676D02*
X119889524Y-62552914D01*
X119889524Y-62552914D02*
X119794286Y-62600533D01*
D11*
%TO.C,U1*%
X115770000Y-84567000D02*
X119220000Y-84567000D01*
X115770000Y-84567000D02*
X113820000Y-84567000D01*
X115770000Y-75697000D02*
X117720000Y-75697000D01*
X115770000Y-75697000D02*
X113820000Y-75697000D01*
%TO.C,U2*%
X119180000Y-65999000D02*
X119180000Y-72009000D01*
X112360000Y-68249000D02*
X112360000Y-72009000D01*
X119180000Y-72009000D02*
X117920000Y-72009000D01*
X112360000Y-72009000D02*
X113620000Y-72009000D01*
%TO.C,C2*%
X116645420Y-64001000D02*
X116926580Y-64001000D01*
X116645420Y-65021000D02*
X116926580Y-65021000D01*
%TO.C,C3*%
X125420000Y-67953580D02*
X125420000Y-67672420D01*
X126440000Y-67953580D02*
X126440000Y-67672420D01*
D10*
%TO.C,XS1*%
X121670000Y-80730000D02*
X121670000Y-73530000D01*
X121670000Y-83530000D02*
X121670000Y-85830000D01*
X121670000Y-85830000D02*
X129020000Y-85830000D01*
X129020000Y-85830000D02*
X130370000Y-85880000D01*
X130370000Y-85880000D02*
X131520000Y-86030000D01*
X131070000Y-73130000D02*
X131070000Y-73430000D01*
X131070000Y-73430000D02*
X131370000Y-73430000D01*
X131370000Y-73130000D02*
X131070000Y-73130000D01*
X131370000Y-73430000D02*
X131370000Y-73130000D01*
X131520000Y-86030000D02*
X132620000Y-86230000D01*
X131820000Y-72530000D02*
X131820000Y-71230000D01*
X131820000Y-72530000D02*
X134820000Y-72530000D01*
X132620000Y-86230000D02*
X133670000Y-86530000D01*
X133670000Y-86530000D02*
X136370000Y-86530000D01*
X136370000Y-73530000D02*
X136370000Y-80730000D01*
X136370000Y-86530000D02*
X136370000Y-83530000D01*
D11*
%TO.C,C5*%
X120086000Y-67953580D02*
X120086000Y-67672420D01*
X121106000Y-67953580D02*
X121106000Y-67672420D01*
%TO.C,R5*%
X112453500Y-63986258D02*
X112453500Y-63511742D01*
X113498500Y-63986258D02*
X113498500Y-63511742D01*
%TO.C,R4*%
X135215500Y-64146742D02*
X135215500Y-64621258D01*
X134170500Y-64146742D02*
X134170500Y-64621258D01*
%TO.C,R2*%
X129629742Y-67671500D02*
X130104258Y-67671500D01*
X129629742Y-68716500D02*
X130104258Y-68716500D01*
%TO.C,R1*%
X117785258Y-85988500D02*
X117310742Y-85988500D01*
X117785258Y-84943500D02*
X117310742Y-84943500D01*
%TO.C,J1*%
X97530000Y-61510000D02*
X97530000Y-87030000D01*
X97530000Y-61510000D02*
X106160000Y-61510000D01*
X97530000Y-61630000D02*
X106160000Y-61630000D01*
X97530000Y-61748095D02*
X106160000Y-61748095D01*
X97530000Y-61866190D02*
X106160000Y-61866190D01*
X97530000Y-61984285D02*
X106160000Y-61984285D01*
X97530000Y-62102380D02*
X106160000Y-62102380D01*
X97530000Y-62220475D02*
X106160000Y-62220475D01*
X97530000Y-62338570D02*
X106160000Y-62338570D01*
X97530000Y-62456665D02*
X106160000Y-62456665D01*
X97530000Y-62574760D02*
X106160000Y-62574760D01*
X97530000Y-62692855D02*
X106160000Y-62692855D01*
X97530000Y-62810950D02*
X106160000Y-62810950D01*
X97530000Y-62929045D02*
X106160000Y-62929045D01*
X97530000Y-63047140D02*
X106160000Y-63047140D01*
X97530000Y-63165235D02*
X106160000Y-63165235D01*
X97530000Y-63283330D02*
X106160000Y-63283330D01*
X97530000Y-63401425D02*
X106160000Y-63401425D01*
X97530000Y-63519520D02*
X106160000Y-63519520D01*
X97530000Y-63637615D02*
X106160000Y-63637615D01*
X97530000Y-63755710D02*
X106160000Y-63755710D01*
X97530000Y-63873805D02*
X106160000Y-63873805D01*
X97530000Y-63991900D02*
X106160000Y-63991900D01*
X97530000Y-64110000D02*
X106160000Y-64110000D01*
X97530000Y-66650000D02*
X106160000Y-66650000D01*
X97530000Y-69190000D02*
X106160000Y-69190000D01*
X97530000Y-71730000D02*
X106160000Y-71730000D01*
X97530000Y-74270000D02*
X106160000Y-74270000D01*
X97530000Y-76810000D02*
X106160000Y-76810000D01*
X97530000Y-79350000D02*
X106160000Y-79350000D01*
X97530000Y-81890000D02*
X106160000Y-81890000D01*
X97530000Y-84430000D02*
X106160000Y-84430000D01*
X97530000Y-87030000D02*
X106160000Y-87030000D01*
X106160000Y-61510000D02*
X106160000Y-87030000D01*
X106160000Y-62480000D02*
X106570000Y-62480000D01*
X106160000Y-63200000D02*
X106570000Y-63200000D01*
X106160000Y-65020000D02*
X106570000Y-65020000D01*
X106160000Y-65740000D02*
X106570000Y-65740000D01*
X106160000Y-67560000D02*
X106570000Y-67560000D01*
X106160000Y-68280000D02*
X106570000Y-68280000D01*
X106160000Y-70100000D02*
X106570000Y-70100000D01*
X106160000Y-70820000D02*
X106570000Y-70820000D01*
X106160000Y-72640000D02*
X106570000Y-72640000D01*
X106160000Y-73360000D02*
X106570000Y-73360000D01*
X106160000Y-75180000D02*
X106570000Y-75180000D01*
X106160000Y-75900000D02*
X106570000Y-75900000D01*
X106160000Y-77720000D02*
X106570000Y-77720000D01*
X106160000Y-78440000D02*
X106570000Y-78440000D01*
X106160000Y-80260000D02*
X106570000Y-80260000D01*
X106160000Y-80980000D02*
X106570000Y-80980000D01*
X106160000Y-82800000D02*
X106570000Y-82800000D01*
X106160000Y-83520000D02*
X106570000Y-83520000D01*
X106160000Y-85340000D02*
X106570000Y-85340000D01*
X106160000Y-86060000D02*
X106570000Y-86060000D01*
X108670000Y-62480000D02*
X109050000Y-62480000D01*
X108670000Y-63200000D02*
X109050000Y-63200000D01*
X108670000Y-65020000D02*
X109110000Y-65020000D01*
X108670000Y-65740000D02*
X109110000Y-65740000D01*
X108670000Y-67560000D02*
X109110000Y-67560000D01*
X108670000Y-68280000D02*
X109110000Y-68280000D01*
X108670000Y-70100000D02*
X109110000Y-70100000D01*
X108670000Y-70820000D02*
X109110000Y-70820000D01*
X108670000Y-72640000D02*
X109110000Y-72640000D01*
X108670000Y-73360000D02*
X109110000Y-73360000D01*
X108670000Y-75180000D02*
X109110000Y-75180000D01*
X108670000Y-75900000D02*
X109110000Y-75900000D01*
X108670000Y-77720000D02*
X109110000Y-77720000D01*
X108670000Y-78440000D02*
X109110000Y-78440000D01*
X108670000Y-80260000D02*
X109110000Y-80260000D01*
X108670000Y-80980000D02*
X109110000Y-80980000D01*
X108670000Y-82800000D02*
X109110000Y-82800000D01*
X108670000Y-83520000D02*
X109110000Y-83520000D01*
X108670000Y-85340000D02*
X109110000Y-85340000D01*
X108670000Y-86060000D02*
X109110000Y-86060000D01*
X110160000Y-61510000D02*
X111270000Y-61510000D01*
X111270000Y-61510000D02*
X111270000Y-62840000D01*
%TO.C,C4*%
X113851420Y-84956000D02*
X114132580Y-84956000D01*
X113851420Y-85976000D02*
X114132580Y-85976000D01*
%TO.C,D1*%
X135609000Y-65869000D02*
X137079000Y-65869000D01*
X137079000Y-65869000D02*
X137079000Y-63584000D01*
X135609000Y-63584000D02*
X135609000Y-65869000D01*
%TO.C,R3*%
X129629742Y-69322500D02*
X130104258Y-69322500D01*
X129629742Y-70367500D02*
X130104258Y-70367500D01*
%TO.C,C1*%
X116645420Y-62350000D02*
X116926580Y-62350000D01*
X116645420Y-63370000D02*
X116926580Y-63370000D01*
%TD*%
%LPC*%
D12*
%TO.C,U1*%
X118245000Y-83942000D03*
X118245000Y-82672000D03*
X118245000Y-81402000D03*
X118245000Y-80132000D03*
X118245000Y-78862000D03*
X118245000Y-77592000D03*
X118245000Y-76322000D03*
X113295000Y-76322000D03*
X113295000Y-77592000D03*
X113295000Y-78862000D03*
X113295000Y-80132000D03*
X113295000Y-81402000D03*
X113295000Y-82672000D03*
X113295000Y-83942000D03*
%TD*%
D13*
%TO.C,U2*%
X118070000Y-66949000D03*
X115770000Y-66949000D03*
D14*
X115770000Y-73249000D03*
D13*
X113470000Y-66949000D03*
%TD*%
D15*
%TO.C,C2*%
X116011000Y-64511000D03*
X117561000Y-64511000D03*
%TD*%
D16*
%TO.C,C3*%
X125930000Y-68588000D03*
X125930000Y-67038000D03*
%TD*%
D17*
%TO.C,XS1*%
X131220000Y-72030000D03*
X130120000Y-72030000D03*
X129020000Y-72030000D03*
X127920000Y-72030000D03*
X126820000Y-72030000D03*
D18*
X121270000Y-72530000D03*
D19*
X121270000Y-82130000D03*
D17*
X125720000Y-72030000D03*
D20*
X135870000Y-72530000D03*
D19*
X136770000Y-82130000D03*
D17*
X124620000Y-72030000D03*
X123520000Y-72030000D03*
X122420000Y-72030000D03*
%TD*%
D16*
%TO.C,C5*%
X120596000Y-68588000D03*
X120596000Y-67038000D03*
%TD*%
D21*
%TO.C,R5*%
X112976000Y-64574000D03*
X112976000Y-62924000D03*
%TD*%
D22*
%TO.C,R4*%
X134693000Y-63559000D03*
X134693000Y-65209000D03*
%TD*%
D23*
%TO.C,R2*%
X129042000Y-68194000D03*
X130692000Y-68194000D03*
%TD*%
D24*
%TO.C,R1*%
X118373000Y-85466000D03*
X116723000Y-85466000D03*
%TD*%
D25*
%TO.C,J1*%
X110160000Y-62840000D03*
D26*
X107620000Y-62840000D03*
X110160000Y-65380000D03*
X107620000Y-65380000D03*
X110160000Y-67920000D03*
X107620000Y-67920000D03*
X110160000Y-70460000D03*
X107620000Y-70460000D03*
X110160000Y-73000000D03*
X107620000Y-73000000D03*
X110160000Y-75540000D03*
X107620000Y-75540000D03*
X110160000Y-78080000D03*
X107620000Y-78080000D03*
X110160000Y-80620000D03*
X107620000Y-80620000D03*
X110160000Y-83160000D03*
X107620000Y-83160000D03*
X110160000Y-85700000D03*
X107620000Y-85700000D03*
%TD*%
D15*
%TO.C,C4*%
X113217000Y-85466000D03*
X114767000Y-85466000D03*
%TD*%
D27*
%TO.C,D1*%
X136344000Y-65171500D03*
X136344000Y-63596500D03*
%TD*%
D23*
%TO.C,R3*%
X129042000Y-69845000D03*
X130692000Y-69845000D03*
%TD*%
D15*
%TO.C,C1*%
X116011000Y-62860000D03*
X117561000Y-62860000D03*
%TD*%
%LPD*%
M02*
