%TF.GenerationSoftware,KiCad,Pcbnew,7.0.7*%
%TF.CreationDate,2023-08-18T08:54:36+02:00*%
%TF.ProjectId,uSD-Turbo,7553442d-5475-4726-926f-2e6b69636164,rev?*%
%TF.SameCoordinates,Original*%
%TF.FileFunction,Copper,L1,Top*%
%TF.FilePolarity,Positive*%
%FSLAX46Y46*%
G04 Gerber Fmt 4.6, Leading zero omitted, Abs format (unit mm)*
G04 Created by KiCad (PCBNEW 7.0.7) date 2023-08-18 08:54:36*
%MOMM*%
%LPD*%
G01*
G04 APERTURE LIST*
G04 Aperture macros list*
%AMRoundRect*
0 Rectangle with rounded corners*
0 $1 Rounding radius*
0 $2 $3 $4 $5 $6 $7 $8 $9 X,Y pos of 4 corners*
0 Add a 4 corners polygon primitive as box body*
4,1,4,$2,$3,$4,$5,$6,$7,$8,$9,$2,$3,0*
0 Add four circle primitives for the rounded corners*
1,1,$1+$1,$2,$3*
1,1,$1+$1,$4,$5*
1,1,$1+$1,$6,$7*
1,1,$1+$1,$8,$9*
0 Add four rect primitives between the rounded corners*
20,1,$1+$1,$2,$3,$4,$5,0*
20,1,$1+$1,$4,$5,$6,$7,0*
20,1,$1+$1,$6,$7,$8,$9,0*
20,1,$1+$1,$8,$9,$2,$3,0*%
G04 Aperture macros list end*
%TA.AperFunction,SMDPad,CuDef*%
%ADD10RoundRect,0.150000X0.825000X0.150000X-0.825000X0.150000X-0.825000X-0.150000X0.825000X-0.150000X0*%
%TD*%
%TA.AperFunction,SMDPad,CuDef*%
%ADD11R,1.500000X2.000000*%
%TD*%
%TA.AperFunction,SMDPad,CuDef*%
%ADD12R,3.800000X2.000000*%
%TD*%
%TA.AperFunction,SMDPad,CuDef*%
%ADD13RoundRect,0.225000X-0.225000X-0.250000X0.225000X-0.250000X0.225000X0.250000X-0.225000X0.250000X0*%
%TD*%
%TA.AperFunction,SMDPad,CuDef*%
%ADD14RoundRect,0.225000X0.250000X-0.225000X0.250000X0.225000X-0.250000X0.225000X-0.250000X-0.225000X0*%
%TD*%
%TA.AperFunction,SMDPad,CuDef*%
%ADD15R,0.700000X1.600000*%
%TD*%
%TA.AperFunction,SMDPad,CuDef*%
%ADD16R,1.200000X1.400000*%
%TD*%
%TA.AperFunction,SMDPad,CuDef*%
%ADD17R,1.200000X2.200000*%
%TD*%
%TA.AperFunction,SMDPad,CuDef*%
%ADD18R,1.600000X1.400000*%
%TD*%
%TA.AperFunction,SMDPad,CuDef*%
%ADD19RoundRect,0.200000X0.275000X-0.200000X0.275000X0.200000X-0.275000X0.200000X-0.275000X-0.200000X0*%
%TD*%
%TA.AperFunction,SMDPad,CuDef*%
%ADD20RoundRect,0.200000X-0.275000X0.200000X-0.275000X-0.200000X0.275000X-0.200000X0.275000X0.200000X0*%
%TD*%
%TA.AperFunction,SMDPad,CuDef*%
%ADD21RoundRect,0.200000X-0.200000X-0.275000X0.200000X-0.275000X0.200000X0.275000X-0.200000X0.275000X0*%
%TD*%
%TA.AperFunction,SMDPad,CuDef*%
%ADD22RoundRect,0.200000X0.200000X0.275000X-0.200000X0.275000X-0.200000X-0.275000X0.200000X-0.275000X0*%
%TD*%
%TA.AperFunction,ComponentPad*%
%ADD23R,1.700000X1.700000*%
%TD*%
%TA.AperFunction,ComponentPad*%
%ADD24O,1.700000X1.700000*%
%TD*%
%TA.AperFunction,SMDPad,CuDef*%
%ADD25RoundRect,0.218750X0.256250X-0.218750X0.256250X0.218750X-0.256250X0.218750X-0.256250X-0.218750X0*%
%TD*%
%TA.AperFunction,ViaPad*%
%ADD26C,0.800000*%
%TD*%
%TA.AperFunction,Conductor*%
%ADD27C,0.500000*%
%TD*%
%TA.AperFunction,Conductor*%
%ADD28C,0.200000*%
%TD*%
G04 APERTURE END LIST*
D10*
%TO.P,U1,1*%
%TO.N,PB2*%
X118245000Y-83942000D03*
%TO.P,U1,2*%
%TO.N,DOUT*%
X118245000Y-82672000D03*
%TO.P,U1,3*%
%TO.N,Net-(R1-Pad1)*%
X118245000Y-81402000D03*
%TO.P,U1,4*%
%TO.N,GND*%
X118245000Y-80132000D03*
%TO.P,U1,5*%
%TO.N,PB1*%
X118245000Y-78862000D03*
%TO.P,U1,6*%
%TO.N,CLK*%
X118245000Y-77592000D03*
%TO.P,U1,7,GND*%
%TO.N,GND*%
X118245000Y-76322000D03*
%TO.P,U1,8*%
%TO.N,Net-(R2-Pad2)*%
X113295000Y-76322000D03*
%TO.P,U1,9*%
%TO.N,CB2*%
X113295000Y-77592000D03*
%TO.P,U1,10*%
%TO.N,PB3*%
X113295000Y-78862000D03*
%TO.P,U1,11*%
%TO.N,Net-(R3-Pad2)*%
X113295000Y-80132000D03*
%TO.P,U1,12*%
%TO.N,PB0*%
X113295000Y-81402000D03*
%TO.P,U1,13*%
%TO.N,PB4*%
X113295000Y-82672000D03*
%TO.P,U1,14,VCC*%
%TO.N,+3.3V*%
X113295000Y-83942000D03*
%TD*%
D11*
%TO.P,U2,1,GND*%
%TO.N,GND*%
X118070000Y-66949000D03*
%TO.P,U2,2,VO*%
%TO.N,+3.3V*%
X115770000Y-66949000D03*
D12*
X115770000Y-73249000D03*
D11*
%TO.P,U2,3,VI*%
%TO.N,+5V*%
X113470000Y-66949000D03*
%TD*%
D13*
%TO.P,C2,1*%
%TO.N,+5V*%
X116011000Y-64511000D03*
%TO.P,C2,2*%
%TO.N,GND*%
X117561000Y-64511000D03*
%TD*%
D14*
%TO.P,C3,1*%
%TO.N,+3.3V*%
X125930000Y-68588000D03*
%TO.P,C3,2*%
%TO.N,GND*%
X125930000Y-67038000D03*
%TD*%
D15*
%TO.P,XS1,1,DAT2*%
%TO.N,unconnected-(XS1-DAT2-Pad1)*%
X131220000Y-72030000D03*
%TO.P,XS1,2,CS/DAT3*%
%TO.N,GND*%
X130120000Y-72030000D03*
%TO.P,XS1,3,DI/CMD*%
%TO.N,DIN*%
X129020000Y-72030000D03*
%TO.P,XS1,4,Vdd*%
%TO.N,+3.3V*%
X127920000Y-72030000D03*
%TO.P,XS1,5,CLK*%
%TO.N,CLK*%
X126820000Y-72030000D03*
D16*
%TO.P,XS1,6,GND*%
%TO.N,GND*%
X121270000Y-72530000D03*
D17*
X121270000Y-82130000D03*
D15*
X125720000Y-72030000D03*
D18*
X135870000Y-72530000D03*
D17*
X136770000Y-82130000D03*
D15*
%TO.P,XS1,7,DO/DAT0*%
%TO.N,DOUT*%
X124620000Y-72030000D03*
%TO.P,XS1,8,DAT1*%
%TO.N,unconnected-(XS1-DAT1-Pad8)*%
X123520000Y-72030000D03*
%TO.P,XS1,9,CD*%
%TO.N,unconnected-(XS1-CD-Pad9)*%
X122420000Y-72030000D03*
%TD*%
D14*
%TO.P,C5,1*%
%TO.N,+3.3V*%
X120596000Y-68588000D03*
%TO.P,C5,2*%
%TO.N,GND*%
X120596000Y-67038000D03*
%TD*%
D19*
%TO.P,R5,1*%
%TO.N,PB1*%
X112976000Y-64574000D03*
%TO.P,R5,2*%
%TO.N,CB1*%
X112976000Y-62924000D03*
%TD*%
D20*
%TO.P,R4,1*%
%TO.N,+3.3V*%
X134693000Y-63559000D03*
%TO.P,R4,2*%
%TO.N,Net-(D1-A)*%
X134693000Y-65209000D03*
%TD*%
D21*
%TO.P,R2,1*%
%TO.N,DIN*%
X129042000Y-68194000D03*
%TO.P,R2,2*%
%TO.N,Net-(R2-Pad2)*%
X130692000Y-68194000D03*
%TD*%
D22*
%TO.P,R1,1*%
%TO.N,Net-(R1-Pad1)*%
X118373000Y-85466000D03*
%TO.P,R1,2*%
%TO.N,CB2*%
X116723000Y-85466000D03*
%TD*%
D23*
%TO.P,J1,1,Pin_1*%
%TO.N,+5V*%
X110160000Y-62840000D03*
D24*
%TO.P,J1,2,Pin_2*%
%TO.N,CB1*%
X107620000Y-62840000D03*
%TO.P,J1,3,Pin_3*%
%TO.N,+5V*%
X110160000Y-65380000D03*
%TO.P,J1,4,Pin_4*%
%TO.N,CB2*%
X107620000Y-65380000D03*
%TO.P,J1,5,Pin_5*%
%TO.N,GND*%
X110160000Y-67920000D03*
%TO.P,J1,6,Pin_6*%
%TO.N,PB0*%
X107620000Y-67920000D03*
%TO.P,J1,7,Pin_7*%
%TO.N,GND*%
X110160000Y-70460000D03*
%TO.P,J1,8,Pin_8*%
%TO.N,PB1*%
X107620000Y-70460000D03*
%TO.P,J1,9,Pin_9*%
%TO.N,GND*%
X110160000Y-73000000D03*
%TO.P,J1,10,Pin_10*%
%TO.N,PB2*%
X107620000Y-73000000D03*
%TO.P,J1,11,Pin_11*%
%TO.N,GND*%
X110160000Y-75540000D03*
%TO.P,J1,12,Pin_12*%
%TO.N,PB3*%
X107620000Y-75540000D03*
%TO.P,J1,13,Pin_13*%
%TO.N,GND*%
X110160000Y-78080000D03*
%TO.P,J1,14,Pin_14*%
%TO.N,PB4*%
X107620000Y-78080000D03*
%TO.P,J1,15,Pin_15*%
%TO.N,GND*%
X110160000Y-80620000D03*
%TO.P,J1,16,Pin_16*%
%TO.N,unconnected-(J1-Pin_16-Pad16)*%
X107620000Y-80620000D03*
%TO.P,J1,17,Pin_17*%
%TO.N,GND*%
X110160000Y-83160000D03*
%TO.P,J1,18,Pin_18*%
%TO.N,unconnected-(J1-Pin_18-Pad18)*%
X107620000Y-83160000D03*
%TO.P,J1,19,Pin_19*%
%TO.N,GND*%
X110160000Y-85700000D03*
%TO.P,J1,20,Pin_20*%
%TO.N,unconnected-(J1-Pin_20-Pad20)*%
X107620000Y-85700000D03*
%TD*%
D13*
%TO.P,C4,1*%
%TO.N,+3.3V*%
X113217000Y-85466000D03*
%TO.P,C4,2*%
%TO.N,GND*%
X114767000Y-85466000D03*
%TD*%
D25*
%TO.P,D1,1,K*%
%TO.N,GND*%
X136344000Y-65171500D03*
%TO.P,D1,2,A*%
%TO.N,Net-(D1-A)*%
X136344000Y-63596500D03*
%TD*%
D21*
%TO.P,R3,1*%
%TO.N,DIN*%
X129042000Y-69845000D03*
%TO.P,R3,2*%
%TO.N,Net-(R3-Pad2)*%
X130692000Y-69845000D03*
%TD*%
D13*
%TO.P,C1,1*%
%TO.N,+5V*%
X116011000Y-62860000D03*
%TO.P,C1,2*%
%TO.N,GND*%
X117561000Y-62860000D03*
%TD*%
D26*
%TO.N,CB2*%
X112595000Y-70988000D03*
X114500000Y-77592000D03*
X112595000Y-73274000D03*
X116659000Y-78608000D03*
%TO.N,PB0*%
X111579000Y-70988000D03*
X111579000Y-72512000D03*
%TO.N,PB1*%
X116786000Y-71623000D03*
X114881000Y-71623000D03*
X113970000Y-64110000D03*
%TO.N,PB2*%
X108912000Y-81910000D03*
%TO.N,Net-(R2-Pad2)*%
X120977000Y-76322000D03*
X123009000Y-79751000D03*
X123009000Y-81275000D03*
X114500000Y-76322000D03*
%TO.N,GND*%
X125908000Y-65888000D03*
X119453000Y-69972000D03*
X117167000Y-69972000D03*
X122374000Y-85212000D03*
X122374000Y-74417000D03*
X114754000Y-84577000D03*
X113738000Y-69083000D03*
X134439000Y-85085000D03*
X119515500Y-79624000D03*
X124406000Y-66924000D03*
X114500000Y-69972000D03*
X119453000Y-66924000D03*
X128597000Y-85212000D03*
X128597000Y-74417000D03*
X134439000Y-74417000D03*
X113357000Y-75306000D03*
X118818000Y-75306000D03*
%TO.N,Net-(R3-Pad2)*%
X114500000Y-80132000D03*
X122247000Y-80513000D03*
%TD*%
D27*
%TO.N,+3.3V*%
X115770000Y-66949000D02*
X115770000Y-67199000D01*
X113295000Y-83942000D02*
X113848528Y-83942000D01*
D28*
X134693000Y-63559000D02*
X129168000Y-63559000D01*
D27*
X126057000Y-68575000D02*
X127920000Y-70438000D01*
D28*
X129168000Y-63559000D02*
X127962000Y-64765000D01*
D27*
X115770000Y-66949000D02*
X115770000Y-73249000D01*
X115770000Y-82020528D02*
X115770000Y-73249000D01*
X113217000Y-84020000D02*
X113295000Y-83942000D01*
D28*
X127962000Y-70396000D02*
X127920000Y-70438000D01*
D27*
X127920000Y-70438000D02*
X127920000Y-72030000D01*
X117146000Y-68575000D02*
X126057000Y-68575000D01*
X113848528Y-83942000D02*
X115770000Y-82020528D01*
D28*
X127962000Y-64765000D02*
X127962000Y-70396000D01*
D27*
X113217000Y-85466000D02*
X113217000Y-84020000D01*
X115770000Y-67199000D02*
X117146000Y-68575000D01*
D28*
%TO.N,Net-(R1-Pad1)*%
X118245000Y-81402000D02*
X117903604Y-81402000D01*
X116970000Y-84317000D02*
X118119000Y-85466000D01*
X117903604Y-81402000D02*
X116970000Y-82335604D01*
X116970000Y-82335604D02*
X116970000Y-84317000D01*
X118119000Y-85466000D02*
X118373000Y-85466000D01*
D27*
%TO.N,+5V*%
X113217000Y-66696000D02*
X113470000Y-66949000D01*
X113470000Y-66811000D02*
X115770000Y-64511000D01*
X111901000Y-65380000D02*
X113470000Y-66949000D01*
X113470000Y-66949000D02*
X113470000Y-66798000D01*
X113470000Y-66949000D02*
X113470000Y-66811000D01*
X116011000Y-64511000D02*
X116011000Y-62860000D01*
X110160000Y-65380000D02*
X111901000Y-65380000D01*
X115770000Y-64511000D02*
X116011000Y-64511000D01*
D28*
%TO.N,CB1*%
X111670000Y-64230000D02*
X112976000Y-62924000D01*
X109010000Y-64230000D02*
X111670000Y-64230000D01*
X107620000Y-62840000D02*
X109010000Y-64230000D01*
%TO.N,CB2*%
X112595000Y-73274000D02*
X112595000Y-75306000D01*
X110536346Y-66670000D02*
X108910000Y-66670000D01*
X108910000Y-66670000D02*
X107620000Y-65380000D01*
X112953604Y-77592000D02*
X113295000Y-77592000D01*
X110536346Y-66670000D02*
X112595000Y-68728654D01*
X116723000Y-85720000D02*
X116570000Y-85567000D01*
X112020000Y-76658396D02*
X112953604Y-77592000D01*
X116570000Y-78697000D02*
X116570000Y-85313000D01*
X112595000Y-75306000D02*
X112020000Y-75881000D01*
X116659000Y-78608000D02*
X116570000Y-78697000D01*
X116570000Y-85313000D02*
X116723000Y-85466000D01*
X112595000Y-68728654D02*
X112595000Y-70988000D01*
X113295000Y-77592000D02*
X114500000Y-77592000D01*
X112020000Y-75881000D02*
X112020000Y-76658396D01*
%TO.N,PB0*%
X113570000Y-74549000D02*
X113692000Y-74671000D01*
X113570000Y-73106000D02*
X113570000Y-74549000D01*
X112976000Y-72512000D02*
X113570000Y-73106000D01*
X107620000Y-67920000D02*
X108910000Y-69210000D01*
X113692000Y-74671000D02*
X114712000Y-74671000D01*
X108910000Y-69210000D02*
X111041950Y-69210000D01*
X114500000Y-81402000D02*
X113295000Y-81402000D01*
X114712000Y-74671000D02*
X115220000Y-75179000D01*
X111579000Y-72512000D02*
X112976000Y-72512000D01*
X111041950Y-69210000D02*
X111579000Y-69747050D01*
X115220000Y-75179000D02*
X115220000Y-80682000D01*
X111579000Y-69747050D02*
X111579000Y-70988000D01*
X115220000Y-80682000D02*
X114500000Y-81402000D01*
%TO.N,PB1*%
X117644000Y-71623000D02*
X117970000Y-71949000D01*
X116913000Y-76042604D02*
X116913000Y-77871396D01*
X108910000Y-71750000D02*
X114754000Y-71750000D01*
X113970000Y-64110000D02*
X113440000Y-64110000D01*
X108910000Y-71750000D02*
X107620000Y-70460000D01*
X117903604Y-78862000D02*
X118245000Y-78862000D01*
X114754000Y-71750000D02*
X114881000Y-71623000D01*
X116913000Y-77871396D02*
X117903604Y-78862000D01*
X117970000Y-74985604D02*
X116913000Y-76042604D01*
X113440000Y-64110000D02*
X112976000Y-64574000D01*
X116786000Y-71623000D02*
X117644000Y-71623000D01*
X117970000Y-71949000D02*
X117970000Y-74985604D01*
%TO.N,PB2*%
X109583654Y-84450000D02*
X110536346Y-84450000D01*
X108912000Y-81910000D02*
X108912000Y-83778346D01*
X119073000Y-85973000D02*
X119073000Y-84770000D01*
X110536346Y-84450000D02*
X112356346Y-86270000D01*
X108912000Y-83778346D02*
X109583654Y-84450000D01*
X119073000Y-84770000D02*
X118245000Y-83942000D01*
X112356346Y-86270000D02*
X118776000Y-86270000D01*
X118776000Y-86270000D02*
X119073000Y-85973000D01*
%TO.N,PB3*%
X107620000Y-75540000D02*
X108912000Y-76832000D01*
X108912000Y-76832000D02*
X110923604Y-76832000D01*
X110923604Y-76832000D02*
X112953604Y-78862000D01*
X112953604Y-78862000D02*
X113295000Y-78862000D01*
%TO.N,PB4*%
X112020000Y-81738396D02*
X112953604Y-82672000D01*
X112953604Y-82672000D02*
X113295000Y-82672000D01*
X112020000Y-80468396D02*
X112020000Y-81738396D01*
X110923604Y-79372000D02*
X112020000Y-80468396D01*
X108912000Y-79372000D02*
X110923604Y-79372000D01*
X107620000Y-78080000D02*
X108912000Y-79372000D01*
%TO.N,Net-(R2-Pad2)*%
X114500000Y-76322000D02*
X113295000Y-76322000D01*
X123009000Y-81275000D02*
X124290685Y-81275000D01*
X123009000Y-78354000D02*
X123009000Y-79751000D01*
X120977000Y-76322000D02*
X123009000Y-78354000D01*
X132270000Y-69772000D02*
X130692000Y-68194000D01*
X124290685Y-81275000D02*
X132270000Y-73295685D01*
X132270000Y-73295685D02*
X132270000Y-69772000D01*
D27*
%TO.N,GND*%
X114995000Y-85642000D02*
X114995000Y-85720000D01*
X114767000Y-85466000D02*
X114767000Y-84590000D01*
X118245000Y-76322000D02*
X118245000Y-75879000D01*
X119007500Y-80132000D02*
X119515500Y-79624000D01*
X110160000Y-83160000D02*
X110160000Y-80620000D01*
X118245000Y-80132000D02*
X119007500Y-80132000D01*
X118245000Y-75879000D02*
X118818000Y-75306000D01*
X114767000Y-84590000D02*
X114754000Y-84577000D01*
X110160000Y-75540000D02*
X110160000Y-73000000D01*
D28*
%TO.N,DOUT*%
X121166000Y-70734000D02*
X124324000Y-70734000D01*
X118245000Y-82672000D02*
X118586396Y-82672000D01*
X124324000Y-70734000D02*
X124620000Y-71030000D01*
X120215000Y-81043396D02*
X120215000Y-71685000D01*
X118586396Y-82672000D02*
X120215000Y-81043396D01*
X120215000Y-71685000D02*
X121166000Y-70734000D01*
X124620000Y-71030000D02*
X124620000Y-72030000D01*
%TO.N,CLK*%
X119707000Y-76471396D02*
X119707000Y-71496000D01*
X126016000Y-70226000D02*
X126820000Y-71030000D01*
X120977000Y-70226000D02*
X126016000Y-70226000D01*
X126820000Y-71030000D02*
X126820000Y-72030000D01*
X118245000Y-77592000D02*
X118586396Y-77592000D01*
X118586396Y-77592000D02*
X119707000Y-76471396D01*
X119707000Y-71496000D02*
X120977000Y-70226000D01*
%TO.N,DIN*%
X129020000Y-69867000D02*
X129042000Y-69845000D01*
X129020000Y-72030000D02*
X129020000Y-69867000D01*
X129042000Y-68194000D02*
X129042000Y-69845000D01*
%TO.N,Net-(D1-A)*%
X135097877Y-65209000D02*
X136344000Y-63962877D01*
X134693000Y-65209000D02*
X135097877Y-65209000D01*
X136344000Y-63962877D02*
X136344000Y-63596500D01*
%TO.N,Net-(R3-Pad2)*%
X124487000Y-80513000D02*
X131870000Y-73130000D01*
X114500000Y-80132000D02*
X113295000Y-80132000D01*
X131870000Y-71023000D02*
X130692000Y-69845000D01*
X131870000Y-73130000D02*
X131870000Y-71023000D01*
X122247000Y-80513000D02*
X124487000Y-80513000D01*
%TD*%
%TA.AperFunction,Conductor*%
%TO.N,GND*%
G36*
X138502539Y-61530185D02*
G01*
X138548294Y-61582989D01*
X138559500Y-61634500D01*
X138559500Y-86905500D01*
X138539815Y-86972539D01*
X138487011Y-87018294D01*
X138435500Y-87029500D01*
X119134646Y-87029500D01*
X119067607Y-87009815D01*
X119021852Y-86957011D01*
X119011908Y-86887853D01*
X119040933Y-86824297D01*
X119072644Y-86798114D01*
X119078834Y-86794538D01*
X119078841Y-86794536D01*
X119151875Y-86738495D01*
X119204282Y-86698282D01*
X119225983Y-86669999D01*
X119231311Y-86663922D01*
X119466922Y-86428311D01*
X119472999Y-86422983D01*
X119501282Y-86401282D01*
X119597536Y-86275841D01*
X119658044Y-86129762D01*
X119673500Y-86012361D01*
X119678682Y-85973000D01*
X119674030Y-85937669D01*
X119673500Y-85929571D01*
X119673500Y-84813428D01*
X119674031Y-84805326D01*
X119677085Y-84782134D01*
X119678682Y-84770000D01*
X119658044Y-84613238D01*
X119623856Y-84530704D01*
X119616388Y-84461236D01*
X119631687Y-84420130D01*
X119671742Y-84352401D01*
X119671744Y-84352398D01*
X119716457Y-84198498D01*
X119717597Y-84194573D01*
X119717598Y-84194567D01*
X119720500Y-84157696D01*
X119720500Y-83726304D01*
X119717598Y-83689432D01*
X119717597Y-83689426D01*
X119671745Y-83531606D01*
X119671744Y-83531603D01*
X119671744Y-83531602D01*
X119631382Y-83463353D01*
X119588084Y-83390139D01*
X119583301Y-83383974D01*
X119585745Y-83382077D01*
X119559142Y-83333358D01*
X119564126Y-83263666D01*
X119584932Y-83231291D01*
X119583301Y-83230026D01*
X119588077Y-83223868D01*
X119588081Y-83223865D01*
X119671744Y-83082398D01*
X119717598Y-82924569D01*
X119720500Y-82887694D01*
X119720500Y-82456306D01*
X119719938Y-82449172D01*
X119734296Y-82380796D01*
X119755868Y-82351761D01*
X119958321Y-82149308D01*
X120019642Y-82115825D01*
X120089334Y-82120809D01*
X120145267Y-82162681D01*
X120169684Y-82228145D01*
X120170000Y-82236991D01*
X120170000Y-83277844D01*
X120176401Y-83337372D01*
X120176403Y-83337379D01*
X120226645Y-83472086D01*
X120226649Y-83472093D01*
X120312809Y-83587187D01*
X120312812Y-83587190D01*
X120427906Y-83673350D01*
X120427913Y-83673354D01*
X120562620Y-83723596D01*
X120562627Y-83723598D01*
X120622155Y-83729999D01*
X120622172Y-83730000D01*
X121020000Y-83730000D01*
X121020000Y-83729999D01*
X121519999Y-83729999D01*
X121520000Y-83730000D01*
X121917828Y-83730000D01*
X121917844Y-83729999D01*
X121977372Y-83723598D01*
X121977379Y-83723596D01*
X122112086Y-83673354D01*
X122112093Y-83673350D01*
X122227187Y-83587190D01*
X122227190Y-83587187D01*
X122313350Y-83472093D01*
X122313354Y-83472086D01*
X122363596Y-83337379D01*
X122363598Y-83337372D01*
X122369999Y-83277844D01*
X122370000Y-83277827D01*
X122370000Y-82380000D01*
X121520000Y-82380000D01*
X121519999Y-83729999D01*
X121020000Y-83729999D01*
X121020000Y-80530000D01*
X120939500Y-80530000D01*
X120872461Y-80510315D01*
X120826706Y-80457511D01*
X120815500Y-80406000D01*
X120815500Y-77346500D01*
X120835185Y-77279461D01*
X120887989Y-77233706D01*
X120939500Y-77222500D01*
X120976903Y-77222500D01*
X121043942Y-77242185D01*
X121064584Y-77258819D01*
X122372181Y-78566415D01*
X122405666Y-78627738D01*
X122408500Y-78654096D01*
X122408500Y-79024547D01*
X122388815Y-79091586D01*
X122376650Y-79107519D01*
X122276466Y-79218785D01*
X122181821Y-79382715D01*
X122181819Y-79382719D01*
X122125929Y-79554731D01*
X122086491Y-79612406D01*
X122033781Y-79637702D01*
X121967195Y-79651856D01*
X121967192Y-79651857D01*
X121794270Y-79728848D01*
X121794265Y-79728851D01*
X121641129Y-79840111D01*
X121514466Y-79980785D01*
X121419821Y-80144715D01*
X121419818Y-80144722D01*
X121372874Y-80289202D01*
X121361326Y-80324744D01*
X121341540Y-80513000D01*
X121361326Y-80701256D01*
X121361327Y-80701259D01*
X121419818Y-80881277D01*
X121419820Y-80881281D01*
X121419821Y-80881284D01*
X121459955Y-80950798D01*
X121503387Y-81026026D01*
X121519999Y-81088025D01*
X121519999Y-81879999D01*
X121520000Y-81880000D01*
X122286794Y-81880000D01*
X122353833Y-81899685D01*
X122378940Y-81921024D01*
X122393324Y-81936998D01*
X122403133Y-81947892D01*
X122403135Y-81947893D01*
X122556265Y-82059148D01*
X122556270Y-82059151D01*
X122729192Y-82136142D01*
X122729197Y-82136144D01*
X122914354Y-82175500D01*
X122914355Y-82175500D01*
X123103644Y-82175500D01*
X123103646Y-82175500D01*
X123229179Y-82148817D01*
X123298843Y-82154133D01*
X123354576Y-82196270D01*
X123378682Y-82261849D01*
X123373748Y-82305670D01*
X123345871Y-82398786D01*
X123345869Y-82398794D01*
X123335668Y-82573933D01*
X123351058Y-82661210D01*
X123366135Y-82746711D01*
X123435623Y-82907804D01*
X123435624Y-82907806D01*
X123435626Y-82907809D01*
X123467153Y-82950156D01*
X123540390Y-83048530D01*
X123674786Y-83161302D01*
X123752488Y-83200325D01*
X123831562Y-83240038D01*
X123831563Y-83240038D01*
X123831567Y-83240040D01*
X124002279Y-83280500D01*
X124002282Y-83280500D01*
X124133701Y-83280500D01*
X124133709Y-83280500D01*
X124264255Y-83265241D01*
X124429117Y-83205237D01*
X124575696Y-83108830D01*
X124696092Y-82981218D01*
X124783812Y-82829281D01*
X124834130Y-82661210D01*
X124839213Y-82573933D01*
X131315668Y-82573933D01*
X131331058Y-82661210D01*
X131346135Y-82746711D01*
X131415623Y-82907804D01*
X131415624Y-82907806D01*
X131415626Y-82907809D01*
X131447153Y-82950156D01*
X131520390Y-83048530D01*
X131654786Y-83161302D01*
X131732488Y-83200325D01*
X131811562Y-83240038D01*
X131811563Y-83240038D01*
X131811567Y-83240040D01*
X131982279Y-83280500D01*
X131982282Y-83280500D01*
X132113701Y-83280500D01*
X132113709Y-83280500D01*
X132244255Y-83265241D01*
X132409117Y-83205237D01*
X132555696Y-83108830D01*
X132676092Y-82981218D01*
X132763812Y-82829281D01*
X132814130Y-82661210D01*
X132824331Y-82486065D01*
X132805628Y-82380000D01*
X135670000Y-82380000D01*
X135670000Y-83277844D01*
X135676401Y-83337372D01*
X135676403Y-83337379D01*
X135726645Y-83472086D01*
X135726649Y-83472093D01*
X135812809Y-83587187D01*
X135812812Y-83587190D01*
X135927906Y-83673350D01*
X135927913Y-83673354D01*
X136062620Y-83723596D01*
X136062627Y-83723598D01*
X136122155Y-83729999D01*
X136122172Y-83730000D01*
X136520000Y-83730000D01*
X136520000Y-82380000D01*
X137020000Y-82380000D01*
X137020000Y-83730000D01*
X137417828Y-83730000D01*
X137417844Y-83729999D01*
X137477372Y-83723598D01*
X137477379Y-83723596D01*
X137612086Y-83673354D01*
X137612093Y-83673350D01*
X137727187Y-83587190D01*
X137727190Y-83587187D01*
X137813350Y-83472093D01*
X137813354Y-83472086D01*
X137863596Y-83337379D01*
X137863598Y-83337372D01*
X137869999Y-83277844D01*
X137870000Y-83277827D01*
X137870000Y-82380000D01*
X137020000Y-82380000D01*
X136520000Y-82380000D01*
X135670000Y-82380000D01*
X132805628Y-82380000D01*
X132793865Y-82313289D01*
X132724377Y-82152196D01*
X132722228Y-82149310D01*
X132619609Y-82011469D01*
X132485214Y-81898698D01*
X132485212Y-81898697D01*
X132447984Y-81880000D01*
X135670000Y-81880000D01*
X136520000Y-81880000D01*
X136520000Y-80530000D01*
X137020000Y-80530000D01*
X137020000Y-81880000D01*
X137870000Y-81880000D01*
X137870000Y-80982172D01*
X137869999Y-80982155D01*
X137863598Y-80922627D01*
X137863596Y-80922620D01*
X137813354Y-80787913D01*
X137813350Y-80787906D01*
X137727190Y-80672812D01*
X137727187Y-80672809D01*
X137612093Y-80586649D01*
X137612086Y-80586645D01*
X137477379Y-80536403D01*
X137477372Y-80536401D01*
X137417844Y-80530000D01*
X137020000Y-80530000D01*
X136520000Y-80530000D01*
X136122155Y-80530000D01*
X136062627Y-80536401D01*
X136062620Y-80536403D01*
X135927913Y-80586645D01*
X135927906Y-80586649D01*
X135812812Y-80672809D01*
X135812809Y-80672812D01*
X135726649Y-80787906D01*
X135726645Y-80787913D01*
X135676403Y-80922620D01*
X135676401Y-80922627D01*
X135670000Y-80982155D01*
X135670000Y-81880000D01*
X132447984Y-81880000D01*
X132328437Y-81819961D01*
X132328433Y-81819960D01*
X132157721Y-81779500D01*
X132026291Y-81779500D01*
X131921854Y-81791707D01*
X131895743Y-81794759D01*
X131895740Y-81794760D01*
X131730884Y-81854762D01*
X131730880Y-81854764D01*
X131584306Y-81951167D01*
X131584305Y-81951168D01*
X131463910Y-82078778D01*
X131376188Y-82230718D01*
X131325870Y-82398789D01*
X131325869Y-82398794D01*
X131315668Y-82573933D01*
X124839213Y-82573933D01*
X124844331Y-82486065D01*
X124813865Y-82313289D01*
X124744377Y-82152196D01*
X124742228Y-82149310D01*
X124639609Y-82011469D01*
X124604022Y-81981608D01*
X124565320Y-81923437D01*
X124564212Y-81853576D01*
X124601049Y-81794206D01*
X124608226Y-81788255D01*
X124718967Y-81703282D01*
X124740669Y-81674998D01*
X124745995Y-81668923D01*
X132663916Y-73751003D01*
X132670006Y-73745662D01*
X132698282Y-73723967D01*
X132760960Y-73642284D01*
X132794536Y-73598526D01*
X132855044Y-73452447D01*
X132875682Y-73295685D01*
X132871027Y-73260340D01*
X132870499Y-73252268D01*
X132870499Y-72780000D01*
X134570000Y-72780000D01*
X134570000Y-73277844D01*
X134576401Y-73337372D01*
X134576403Y-73337379D01*
X134626645Y-73472086D01*
X134626649Y-73472093D01*
X134712809Y-73587187D01*
X134712812Y-73587190D01*
X134827906Y-73673350D01*
X134827913Y-73673354D01*
X134962620Y-73723596D01*
X134962627Y-73723598D01*
X135022155Y-73729999D01*
X135022172Y-73730000D01*
X135620000Y-73730000D01*
X135620000Y-72780000D01*
X136120000Y-72780000D01*
X136120000Y-73730000D01*
X136717828Y-73730000D01*
X136717844Y-73729999D01*
X136777372Y-73723598D01*
X136777379Y-73723596D01*
X136912086Y-73673354D01*
X136912093Y-73673350D01*
X137027187Y-73587190D01*
X137027190Y-73587187D01*
X137113350Y-73472093D01*
X137113354Y-73472086D01*
X137163596Y-73337379D01*
X137163598Y-73337372D01*
X137169999Y-73277844D01*
X137170000Y-73277827D01*
X137170000Y-72780000D01*
X136120000Y-72780000D01*
X135620000Y-72780000D01*
X134570000Y-72780000D01*
X132870499Y-72780000D01*
X132870499Y-72280000D01*
X134570000Y-72280000D01*
X135620000Y-72280000D01*
X135620000Y-71330000D01*
X136120000Y-71330000D01*
X136120000Y-72280000D01*
X137170000Y-72280000D01*
X137170000Y-71782172D01*
X137169999Y-71782155D01*
X137163598Y-71722627D01*
X137163596Y-71722620D01*
X137113354Y-71587913D01*
X137113350Y-71587906D01*
X137027190Y-71472812D01*
X137027187Y-71472809D01*
X136912093Y-71386649D01*
X136912086Y-71386645D01*
X136777379Y-71336403D01*
X136777372Y-71336401D01*
X136717844Y-71330000D01*
X136120000Y-71330000D01*
X135620000Y-71330000D01*
X135022155Y-71330000D01*
X134962627Y-71336401D01*
X134962620Y-71336403D01*
X134827913Y-71386645D01*
X134827906Y-71386649D01*
X134712812Y-71472809D01*
X134712809Y-71472812D01*
X134626649Y-71587906D01*
X134626645Y-71587913D01*
X134576403Y-71722620D01*
X134576401Y-71722627D01*
X134570000Y-71782155D01*
X134570000Y-72280000D01*
X132870499Y-72280000D01*
X132870499Y-69815414D01*
X132871027Y-69807345D01*
X132875682Y-69772000D01*
X132871956Y-69743701D01*
X132855044Y-69615239D01*
X132855044Y-69615238D01*
X132794536Y-69469159D01*
X132757970Y-69421505D01*
X132698282Y-69343718D01*
X132670005Y-69322020D01*
X132663904Y-69316669D01*
X131628819Y-68281584D01*
X131595334Y-68220261D01*
X131592500Y-68193903D01*
X131592500Y-68054294D01*
X131592500Y-67862384D01*
X131586086Y-67791804D01*
X131535478Y-67629394D01*
X131447472Y-67483815D01*
X131447470Y-67483813D01*
X131447469Y-67483811D01*
X131327188Y-67363530D01*
X131267248Y-67327295D01*
X131181606Y-67275522D01*
X131019196Y-67224914D01*
X131019194Y-67224913D01*
X131019192Y-67224913D01*
X130969778Y-67220423D01*
X130948616Y-67218500D01*
X130435384Y-67218500D01*
X130416145Y-67220248D01*
X130364807Y-67224913D01*
X130202393Y-67275522D01*
X130056811Y-67363530D01*
X130056810Y-67363531D01*
X129954681Y-67465661D01*
X129893358Y-67499146D01*
X129823666Y-67494162D01*
X129779319Y-67465661D01*
X129677188Y-67363530D01*
X129617248Y-67327295D01*
X129531606Y-67275522D01*
X129369196Y-67224914D01*
X129369194Y-67224913D01*
X129369192Y-67224913D01*
X129319778Y-67220423D01*
X129298616Y-67218500D01*
X128785384Y-67218500D01*
X128714804Y-67224914D01*
X128714803Y-67224914D01*
X128714794Y-67224915D01*
X128710675Y-67225734D01*
X128641085Y-67219498D01*
X128585913Y-67176629D01*
X128562676Y-67110736D01*
X128562499Y-67104148D01*
X128562499Y-65065096D01*
X128582184Y-64998058D01*
X128598818Y-64977416D01*
X129380416Y-64195819D01*
X129441739Y-64162334D01*
X129468097Y-64159500D01*
X133776480Y-64159500D01*
X133843519Y-64179185D01*
X133864161Y-64195819D01*
X133964660Y-64296318D01*
X133998145Y-64357641D01*
X133993161Y-64427333D01*
X133964661Y-64471679D01*
X133862531Y-64573810D01*
X133862530Y-64573811D01*
X133774522Y-64719393D01*
X133723913Y-64881807D01*
X133717499Y-64952386D01*
X133717499Y-65465613D01*
X133723913Y-65536192D01*
X133723913Y-65536194D01*
X133723914Y-65536196D01*
X133774522Y-65698606D01*
X133862212Y-65843663D01*
X133862530Y-65844188D01*
X133982811Y-65964469D01*
X133982813Y-65964470D01*
X133982815Y-65964472D01*
X134128394Y-66052478D01*
X134290804Y-66103086D01*
X134361384Y-66109500D01*
X134361387Y-66109500D01*
X135024613Y-66109500D01*
X135024616Y-66109500D01*
X135095196Y-66103086D01*
X135257606Y-66052478D01*
X135403185Y-65964472D01*
X135415086Y-65952571D01*
X135436665Y-65930993D01*
X135497988Y-65897508D01*
X135567680Y-65902492D01*
X135612027Y-65930993D01*
X135638919Y-65957885D01*
X135781922Y-66046091D01*
X135781927Y-66046093D01*
X135941416Y-66098942D01*
X136039855Y-66108999D01*
X136093999Y-66108998D01*
X136094000Y-66108998D01*
X136094000Y-65421500D01*
X136594000Y-65421500D01*
X136594000Y-66108999D01*
X136648136Y-66108999D01*
X136648152Y-66108998D01*
X136746583Y-66098943D01*
X136906072Y-66046093D01*
X136906077Y-66046091D01*
X137049080Y-65957885D01*
X137167885Y-65839080D01*
X137256091Y-65696077D01*
X137256093Y-65696072D01*
X137308942Y-65536583D01*
X137318999Y-65438150D01*
X137319000Y-65438137D01*
X137319000Y-65421500D01*
X136594000Y-65421500D01*
X136094000Y-65421500D01*
X136094000Y-65113474D01*
X136113685Y-65046435D01*
X136130319Y-65025792D01*
X136145612Y-65010500D01*
X136198293Y-64957818D01*
X136259618Y-64924334D01*
X136285975Y-64921500D01*
X137318999Y-64921500D01*
X137318999Y-64904864D01*
X137318998Y-64904847D01*
X137308943Y-64806416D01*
X137256093Y-64646927D01*
X137256091Y-64646922D01*
X137167885Y-64503919D01*
X137136000Y-64472034D01*
X137102515Y-64410711D01*
X137107499Y-64341019D01*
X137136000Y-64296672D01*
X137136354Y-64296318D01*
X137168281Y-64264391D01*
X137256549Y-64121287D01*
X137309436Y-63961685D01*
X137319500Y-63863174D01*
X137319500Y-63329826D01*
X137309436Y-63231315D01*
X137256549Y-63071713D01*
X137256545Y-63071707D01*
X137256544Y-63071704D01*
X137168283Y-62928612D01*
X137168280Y-62928608D01*
X137049391Y-62809719D01*
X137049387Y-62809716D01*
X136906295Y-62721455D01*
X136906289Y-62721452D01*
X136906287Y-62721451D01*
X136746685Y-62668564D01*
X136746683Y-62668563D01*
X136648181Y-62658500D01*
X136648174Y-62658500D01*
X136039826Y-62658500D01*
X136039818Y-62658500D01*
X135941316Y-62668563D01*
X135941315Y-62668564D01*
X135862219Y-62694773D01*
X135781715Y-62721450D01*
X135781704Y-62721455D01*
X135638612Y-62809716D01*
X135638611Y-62809716D01*
X135611671Y-62836656D01*
X135550346Y-62870139D01*
X135480655Y-62865152D01*
X135436311Y-62836653D01*
X135403188Y-62803530D01*
X135257606Y-62715522D01*
X135106906Y-62668563D01*
X135095196Y-62664914D01*
X135095194Y-62664913D01*
X135095192Y-62664913D01*
X135045778Y-62660423D01*
X135024616Y-62658500D01*
X134361384Y-62658500D01*
X134342145Y-62660248D01*
X134290807Y-62664913D01*
X134128393Y-62715522D01*
X133982811Y-62803530D01*
X133982810Y-62803531D01*
X133864161Y-62922181D01*
X133802838Y-62955666D01*
X133776480Y-62958500D01*
X129211434Y-62958500D01*
X129203334Y-62957969D01*
X129168000Y-62953317D01*
X129167999Y-62953317D01*
X128963011Y-62980305D01*
X128940467Y-63002583D01*
X128929144Y-63007959D01*
X128865160Y-63034462D01*
X128865159Y-63034463D01*
X128739719Y-63130716D01*
X128718019Y-63158994D01*
X128712668Y-63165096D01*
X127568096Y-64309668D01*
X127561994Y-64315019D01*
X127533717Y-64336718D01*
X127483259Y-64402478D01*
X127437462Y-64462162D01*
X127437461Y-64462163D01*
X127376957Y-64608234D01*
X127376955Y-64608239D01*
X127356318Y-64764998D01*
X127356318Y-64764999D01*
X127360969Y-64800326D01*
X127361500Y-64808428D01*
X127361500Y-68518770D01*
X127341815Y-68585809D01*
X127289011Y-68631564D01*
X127219853Y-68641508D01*
X127156297Y-68612483D01*
X127149819Y-68606451D01*
X126941778Y-68398410D01*
X126908293Y-68337087D01*
X126905619Y-68317017D01*
X126905499Y-68314672D01*
X126905499Y-68314656D01*
X126895349Y-68215292D01*
X126842003Y-68054303D01*
X126841999Y-68054297D01*
X126841998Y-68054294D01*
X126752970Y-67909959D01*
X126752967Y-67909955D01*
X126743339Y-67900327D01*
X126709854Y-67839004D01*
X126714838Y-67769312D01*
X126743345Y-67724959D01*
X126752573Y-67715731D01*
X126841542Y-67571492D01*
X126841547Y-67571481D01*
X126894855Y-67410606D01*
X126904999Y-67311322D01*
X126905000Y-67311309D01*
X126905000Y-67288000D01*
X124955001Y-67288000D01*
X124955001Y-67311322D01*
X124965144Y-67410607D01*
X125018452Y-67571481D01*
X125018455Y-67571488D01*
X125057879Y-67635402D01*
X125076320Y-67702794D01*
X125055398Y-67769458D01*
X125001757Y-67814228D01*
X124952341Y-67824500D01*
X121573659Y-67824500D01*
X121506620Y-67804815D01*
X121460865Y-67752011D01*
X121450921Y-67682853D01*
X121468121Y-67635402D01*
X121507544Y-67571488D01*
X121507547Y-67571481D01*
X121560855Y-67410606D01*
X121570999Y-67311322D01*
X121571000Y-67311309D01*
X121571000Y-67288000D01*
X119621001Y-67288000D01*
X119621001Y-67311322D01*
X119631144Y-67410607D01*
X119684452Y-67571481D01*
X119684455Y-67571488D01*
X119723879Y-67635402D01*
X119742320Y-67702794D01*
X119721398Y-67769458D01*
X119667757Y-67814228D01*
X119618341Y-67824500D01*
X119444000Y-67824500D01*
X119376961Y-67804815D01*
X119331206Y-67752011D01*
X119320000Y-67700500D01*
X119320000Y-67199000D01*
X117944000Y-67199000D01*
X117876961Y-67179315D01*
X117831206Y-67126511D01*
X117820000Y-67075000D01*
X117820000Y-66823000D01*
X117830277Y-66788000D01*
X119621000Y-66788000D01*
X120346000Y-66788000D01*
X120346000Y-66088000D01*
X120846000Y-66088000D01*
X120846000Y-66788000D01*
X121570999Y-66788000D01*
X124955000Y-66788000D01*
X125679999Y-66788000D01*
X125679999Y-66088000D01*
X126180000Y-66088000D01*
X126180000Y-66788000D01*
X126904999Y-66788000D01*
X126904999Y-66764692D01*
X126904998Y-66764677D01*
X126894855Y-66665392D01*
X126841547Y-66504518D01*
X126841542Y-66504507D01*
X126752575Y-66360271D01*
X126752572Y-66360267D01*
X126632732Y-66240427D01*
X126632728Y-66240424D01*
X126488492Y-66151457D01*
X126488481Y-66151452D01*
X126327606Y-66098144D01*
X126228322Y-66088000D01*
X126180000Y-66088000D01*
X125679999Y-66088000D01*
X125679998Y-66087999D01*
X125631693Y-66088000D01*
X125631675Y-66088001D01*
X125532392Y-66098144D01*
X125371518Y-66151452D01*
X125371507Y-66151457D01*
X125227271Y-66240424D01*
X125227267Y-66240427D01*
X125107427Y-66360267D01*
X125107424Y-66360271D01*
X125018457Y-66504507D01*
X125018452Y-66504518D01*
X124965144Y-66665393D01*
X124955000Y-66764677D01*
X124955000Y-66788000D01*
X121570999Y-66788000D01*
X121570999Y-66764692D01*
X121570998Y-66764677D01*
X121560855Y-66665392D01*
X121507547Y-66504518D01*
X121507542Y-66504507D01*
X121418575Y-66360271D01*
X121418572Y-66360267D01*
X121298732Y-66240427D01*
X121298728Y-66240424D01*
X121154492Y-66151457D01*
X121154481Y-66151452D01*
X120993606Y-66098144D01*
X120894322Y-66088000D01*
X120846000Y-66088000D01*
X120346000Y-66088000D01*
X120345999Y-66087999D01*
X120297693Y-66088000D01*
X120297675Y-66088001D01*
X120198392Y-66098144D01*
X120037518Y-66151452D01*
X120037507Y-66151457D01*
X119893271Y-66240424D01*
X119893267Y-66240427D01*
X119773427Y-66360267D01*
X119773424Y-66360271D01*
X119684457Y-66504507D01*
X119684452Y-66504518D01*
X119631144Y-66665393D01*
X119621000Y-66764677D01*
X119621000Y-66788000D01*
X117830277Y-66788000D01*
X117839685Y-66755961D01*
X117892489Y-66710206D01*
X117944000Y-66699000D01*
X119320000Y-66699000D01*
X119320000Y-65901172D01*
X119319999Y-65901155D01*
X119313598Y-65841627D01*
X119313596Y-65841620D01*
X119263354Y-65706913D01*
X119263350Y-65706906D01*
X119177190Y-65591812D01*
X119177187Y-65591809D01*
X119062093Y-65505649D01*
X119062086Y-65505645D01*
X118927379Y-65455403D01*
X118927372Y-65455401D01*
X118867844Y-65449000D01*
X118422667Y-65449000D01*
X118355628Y-65429315D01*
X118309873Y-65376511D01*
X118299929Y-65307353D01*
X118328954Y-65243797D01*
X118334986Y-65237319D01*
X118358572Y-65213732D01*
X118358575Y-65213728D01*
X118447542Y-65069492D01*
X118447547Y-65069481D01*
X118500855Y-64908606D01*
X118510999Y-64809322D01*
X118511000Y-64809309D01*
X118511000Y-64761000D01*
X117435000Y-64761000D01*
X117367961Y-64741315D01*
X117322206Y-64688511D01*
X117311000Y-64637000D01*
X117311000Y-63110000D01*
X117811000Y-63110000D01*
X117811000Y-64261000D01*
X118510999Y-64261000D01*
X118510999Y-64212692D01*
X118510998Y-64212677D01*
X118500855Y-64113392D01*
X118447547Y-63952518D01*
X118447542Y-63952507D01*
X118358575Y-63808271D01*
X118358572Y-63808267D01*
X118323486Y-63773181D01*
X118290001Y-63711858D01*
X118294985Y-63642166D01*
X118323486Y-63597819D01*
X118358572Y-63562732D01*
X118358575Y-63562728D01*
X118447542Y-63418492D01*
X118447547Y-63418481D01*
X118500855Y-63257606D01*
X118510999Y-63158322D01*
X118511000Y-63158309D01*
X118511000Y-63110000D01*
X117811000Y-63110000D01*
X117311000Y-63110000D01*
X117311000Y-61885000D01*
X117811000Y-61885000D01*
X117811000Y-62610000D01*
X118510999Y-62610000D01*
X118510999Y-62561692D01*
X118510998Y-62561677D01*
X118500855Y-62462392D01*
X118447547Y-62301518D01*
X118447542Y-62301507D01*
X118358575Y-62157271D01*
X118358572Y-62157267D01*
X118238732Y-62037427D01*
X118238728Y-62037424D01*
X118094492Y-61948457D01*
X118094481Y-61948452D01*
X117933606Y-61895144D01*
X117834322Y-61885000D01*
X117811000Y-61885000D01*
X117311000Y-61885000D01*
X117311000Y-61884999D01*
X117287693Y-61885000D01*
X117287674Y-61885001D01*
X117188392Y-61895144D01*
X117027518Y-61948452D01*
X117027507Y-61948457D01*
X116883271Y-62037424D01*
X116883265Y-62037428D01*
X116874031Y-62046663D01*
X116812707Y-62080146D01*
X116743015Y-62075159D01*
X116698672Y-62046660D01*
X116689044Y-62037032D01*
X116689040Y-62037029D01*
X116544705Y-61948001D01*
X116544699Y-61947998D01*
X116544697Y-61947997D01*
X116534388Y-61944581D01*
X116383709Y-61894651D01*
X116284346Y-61884500D01*
X115737662Y-61884500D01*
X115737644Y-61884501D01*
X115638292Y-61894650D01*
X115638289Y-61894651D01*
X115477305Y-61947996D01*
X115477294Y-61948001D01*
X115332959Y-62037029D01*
X115332955Y-62037032D01*
X115213032Y-62156955D01*
X115213029Y-62156959D01*
X115124001Y-62301294D01*
X115123996Y-62301305D01*
X115070651Y-62462290D01*
X115060500Y-62561647D01*
X115060500Y-63158337D01*
X115060501Y-63158355D01*
X115070650Y-63257707D01*
X115070651Y-63257710D01*
X115123996Y-63418694D01*
X115124001Y-63418705D01*
X115213029Y-63563040D01*
X115213032Y-63563044D01*
X115224181Y-63574193D01*
X115257666Y-63635516D01*
X115260500Y-63661874D01*
X115260500Y-63709126D01*
X115240815Y-63776165D01*
X115224181Y-63796807D01*
X115213032Y-63807955D01*
X115213029Y-63807959D01*
X115124001Y-63952294D01*
X115123993Y-63952311D01*
X115103632Y-64013757D01*
X115063859Y-64071202D01*
X114999343Y-64098024D01*
X114930567Y-64085708D01*
X114879368Y-64038165D01*
X114862607Y-63987717D01*
X114855674Y-63921744D01*
X114797179Y-63741716D01*
X114702533Y-63577784D01*
X114575871Y-63437112D01*
X114550228Y-63418481D01*
X114422734Y-63325851D01*
X114422729Y-63325848D01*
X114249807Y-63248857D01*
X114249802Y-63248855D01*
X114112609Y-63219694D01*
X114064646Y-63209500D01*
X114064645Y-63209500D01*
X114064640Y-63209499D01*
X114062521Y-63209276D01*
X114061378Y-63208805D01*
X114058289Y-63208149D01*
X114058409Y-63207583D01*
X113997910Y-63182682D01*
X113957933Y-63125379D01*
X113951500Y-63085957D01*
X113951500Y-62922181D01*
X113951500Y-62667384D01*
X113945086Y-62596804D01*
X113894478Y-62434394D01*
X113806472Y-62288815D01*
X113806470Y-62288813D01*
X113806469Y-62288811D01*
X113686188Y-62168530D01*
X113667563Y-62157271D01*
X113540606Y-62080522D01*
X113378196Y-62029914D01*
X113378194Y-62029913D01*
X113378192Y-62029913D01*
X113328778Y-62025423D01*
X113307616Y-62023500D01*
X112644384Y-62023500D01*
X112625144Y-62025248D01*
X112573807Y-62029913D01*
X112411393Y-62080522D01*
X112265811Y-62168530D01*
X112145530Y-62288811D01*
X112057522Y-62434393D01*
X112006913Y-62596807D01*
X112001782Y-62653275D01*
X112000725Y-62664914D01*
X112000500Y-62667386D01*
X112000500Y-62998901D01*
X111980815Y-63065940D01*
X111964181Y-63086582D01*
X111722180Y-63328583D01*
X111660857Y-63362068D01*
X111591165Y-63357084D01*
X111535232Y-63315212D01*
X111510815Y-63249748D01*
X111510499Y-63240902D01*
X111510499Y-61942129D01*
X111510498Y-61942123D01*
X111504091Y-61882516D01*
X111453797Y-61747671D01*
X111453795Y-61747668D01*
X111424707Y-61708811D01*
X111400290Y-61643347D01*
X111415142Y-61575074D01*
X111464547Y-61525668D01*
X111523974Y-61510500D01*
X138435500Y-61510500D01*
X138502539Y-61530185D01*
G37*
%TD.AperFunction*%
%TA.AperFunction,Conductor*%
G36*
X115888833Y-83065575D02*
G01*
X115944766Y-83107447D01*
X115969183Y-83172911D01*
X115969499Y-83181757D01*
X115969499Y-84717985D01*
X115951616Y-84782134D01*
X115879520Y-84901395D01*
X115878206Y-84904316D01*
X115876677Y-84906099D01*
X115875642Y-84907812D01*
X115875357Y-84907639D01*
X115832736Y-84957365D01*
X115765803Y-84977410D01*
X115698659Y-84958087D01*
X115658837Y-84912738D01*
X115657339Y-84913663D01*
X115564575Y-84763271D01*
X115564572Y-84763267D01*
X115444732Y-84643427D01*
X115444728Y-84643424D01*
X115300492Y-84554457D01*
X115300481Y-84554452D01*
X115139606Y-84501144D01*
X115040322Y-84491000D01*
X115017000Y-84491000D01*
X115017000Y-85545500D01*
X114997315Y-85612539D01*
X114944511Y-85658294D01*
X114893000Y-85669500D01*
X114641000Y-85669500D01*
X114573961Y-85649815D01*
X114528206Y-85597011D01*
X114517000Y-85545500D01*
X114517000Y-84666308D01*
X114536685Y-84599269D01*
X114553314Y-84578631D01*
X114638081Y-84493865D01*
X114721744Y-84352398D01*
X114766457Y-84198498D01*
X114767597Y-84194573D01*
X114767598Y-84194567D01*
X114770500Y-84157694D01*
X114770499Y-84132759D01*
X114790181Y-84065721D01*
X114806813Y-84045081D01*
X115757820Y-83094074D01*
X115819141Y-83060591D01*
X115888833Y-83065575D01*
G37*
%TD.AperFunction*%
%TA.AperFunction,Conductor*%
G36*
X111387909Y-81485240D02*
G01*
X111417941Y-81548327D01*
X111419499Y-81567923D01*
X111419499Y-81694963D01*
X111418968Y-81703062D01*
X111414318Y-81738396D01*
X111414317Y-81738397D01*
X111425056Y-81819960D01*
X111434955Y-81895156D01*
X111434956Y-81895158D01*
X111472569Y-81985965D01*
X111495464Y-82041237D01*
X111591718Y-82166678D01*
X111619995Y-82188376D01*
X111626085Y-82193716D01*
X111710653Y-82278284D01*
X111784124Y-82351755D01*
X111817609Y-82413078D01*
X111820062Y-82449151D01*
X111819500Y-82456297D01*
X111819500Y-82887696D01*
X111822401Y-82924567D01*
X111822402Y-82924573D01*
X111868254Y-83082393D01*
X111868255Y-83082396D01*
X111951917Y-83223862D01*
X111956702Y-83230031D01*
X111954256Y-83231927D01*
X111980857Y-83280642D01*
X111975873Y-83350334D01*
X111955069Y-83382703D01*
X111956702Y-83383969D01*
X111951917Y-83390137D01*
X111868255Y-83531603D01*
X111868254Y-83531606D01*
X111822402Y-83689426D01*
X111822401Y-83689432D01*
X111819500Y-83726304D01*
X111819500Y-84157696D01*
X111822401Y-84194567D01*
X111822402Y-84194573D01*
X111868254Y-84352393D01*
X111868255Y-84352396D01*
X111951917Y-84493862D01*
X111951923Y-84493870D01*
X112068129Y-84610076D01*
X112068133Y-84610079D01*
X112068135Y-84610081D01*
X112209602Y-84693744D01*
X112221501Y-84697201D01*
X112266909Y-84710394D01*
X112325795Y-84748000D01*
X112355001Y-84811473D01*
X112345255Y-84880659D01*
X112337853Y-84894566D01*
X112330000Y-84907296D01*
X112329996Y-84907305D01*
X112276651Y-85068289D01*
X112276277Y-85070039D01*
X112275748Y-85071014D01*
X112274521Y-85074719D01*
X112273860Y-85074500D01*
X112242994Y-85131472D01*
X112181782Y-85165160D01*
X112112074Y-85160405D01*
X112067343Y-85131762D01*
X111170065Y-84234484D01*
X111136580Y-84173161D01*
X111141564Y-84103469D01*
X111170066Y-84059120D01*
X111198110Y-84031076D01*
X111333600Y-83837578D01*
X111433429Y-83623492D01*
X111433432Y-83623486D01*
X111490636Y-83410000D01*
X110773347Y-83410000D01*
X110706308Y-83390315D01*
X110660553Y-83337511D01*
X110650609Y-83268353D01*
X110654369Y-83251067D01*
X110660000Y-83231888D01*
X110660000Y-83088111D01*
X110654369Y-83068933D01*
X110654370Y-82999064D01*
X110692145Y-82940286D01*
X110755701Y-82911262D01*
X110773347Y-82910000D01*
X111490636Y-82910000D01*
X111490635Y-82909999D01*
X111433432Y-82696513D01*
X111433429Y-82696507D01*
X111333600Y-82482422D01*
X111333599Y-82482420D01*
X111198113Y-82288926D01*
X111198108Y-82288920D01*
X111031082Y-82121894D01*
X110844968Y-81991575D01*
X110801344Y-81936998D01*
X110794151Y-81867499D01*
X110825673Y-81805145D01*
X110844968Y-81788425D01*
X111031082Y-81658105D01*
X111198109Y-81491078D01*
X111200507Y-81488221D01*
X111201881Y-81487306D01*
X111201938Y-81487250D01*
X111201949Y-81487261D01*
X111258677Y-81449516D01*
X111328538Y-81448405D01*
X111387909Y-81485240D01*
G37*
%TD.AperFunction*%
%TA.AperFunction,Conductor*%
G36*
X110337512Y-81119507D02*
G01*
X110390315Y-81165262D01*
X110410000Y-81232301D01*
X110410000Y-82547698D01*
X110390315Y-82614737D01*
X110337511Y-82660492D01*
X110268355Y-82670436D01*
X110195766Y-82660000D01*
X110195763Y-82660000D01*
X110124237Y-82660000D01*
X110124233Y-82660000D01*
X110051645Y-82670436D01*
X109982487Y-82660492D01*
X109929684Y-82614736D01*
X109910000Y-82547698D01*
X109910000Y-81232301D01*
X109929685Y-81165262D01*
X109982489Y-81119507D01*
X110051647Y-81109563D01*
X110124237Y-81120000D01*
X110124238Y-81120000D01*
X110195762Y-81120000D01*
X110195763Y-81120000D01*
X110268353Y-81109563D01*
X110337512Y-81119507D01*
G37*
%TD.AperFunction*%
%TA.AperFunction,Conductor*%
G36*
X125912539Y-71799685D02*
G01*
X125958294Y-71852489D01*
X125969500Y-71904000D01*
X125969500Y-72877863D01*
X125969501Y-72877880D01*
X125969644Y-72879202D01*
X125970000Y-72885835D01*
X125970000Y-73330000D01*
X126117828Y-73330000D01*
X126117844Y-73329999D01*
X126177372Y-73323598D01*
X126177375Y-73323597D01*
X126225949Y-73305480D01*
X126295640Y-73300494D01*
X126312610Y-73305477D01*
X126362517Y-73324091D01*
X126422127Y-73330500D01*
X127217872Y-73330499D01*
X127277483Y-73324091D01*
X127326665Y-73305746D01*
X127396355Y-73300761D01*
X127413333Y-73305747D01*
X127462508Y-73324088D01*
X127462511Y-73324088D01*
X127462517Y-73324091D01*
X127522127Y-73330500D01*
X128317872Y-73330499D01*
X128377483Y-73324091D01*
X128426665Y-73305746D01*
X128496355Y-73300761D01*
X128513333Y-73305747D01*
X128562508Y-73324088D01*
X128562511Y-73324088D01*
X128562517Y-73324091D01*
X128622127Y-73330500D01*
X129417872Y-73330499D01*
X129477483Y-73324091D01*
X129527382Y-73305479D01*
X129597069Y-73300494D01*
X129614048Y-73305479D01*
X129662628Y-73323598D01*
X129662627Y-73323598D01*
X129722155Y-73329999D01*
X129722172Y-73330000D01*
X129870000Y-73330000D01*
X129870000Y-72885845D01*
X129870356Y-72879211D01*
X129870499Y-72877880D01*
X129870500Y-72877873D01*
X129870499Y-71903998D01*
X129890183Y-71836961D01*
X129942987Y-71791206D01*
X129994499Y-71780000D01*
X130245500Y-71780000D01*
X130312539Y-71799685D01*
X130358294Y-71852489D01*
X130369500Y-71904000D01*
X130369500Y-72877863D01*
X130369501Y-72877880D01*
X130369644Y-72879202D01*
X130370000Y-72885835D01*
X130370000Y-73330000D01*
X130521149Y-73330000D01*
X130521148Y-73331742D01*
X130582499Y-73346073D01*
X130631143Y-73396228D01*
X130644950Y-73464720D01*
X130619536Y-73529803D01*
X130609097Y-73541666D01*
X124274584Y-79876181D01*
X124213261Y-79909666D01*
X124186903Y-79912500D01*
X124035202Y-79912500D01*
X123968163Y-79892815D01*
X123922408Y-79840011D01*
X123911881Y-79775540D01*
X123912365Y-79770926D01*
X123914460Y-79751000D01*
X123894674Y-79562744D01*
X123836179Y-79382716D01*
X123741533Y-79218784D01*
X123641348Y-79107518D01*
X123611119Y-79044528D01*
X123609500Y-79024559D01*
X123609500Y-78397426D01*
X123610031Y-78389326D01*
X123614682Y-78353999D01*
X123614682Y-78353998D01*
X123594044Y-78197239D01*
X123594042Y-78197234D01*
X123533538Y-78051163D01*
X123533538Y-78051162D01*
X123533536Y-78051159D01*
X123461450Y-77957215D01*
X123449365Y-77941466D01*
X123437283Y-77925718D01*
X123409009Y-77904023D01*
X123402912Y-77898677D01*
X121918779Y-76414544D01*
X121885294Y-76353221D01*
X121882460Y-76326863D01*
X121882460Y-76322002D01*
X121879237Y-76291339D01*
X121862674Y-76133744D01*
X121804179Y-75953716D01*
X121709533Y-75789784D01*
X121582871Y-75649112D01*
X121531638Y-75611889D01*
X121429734Y-75537851D01*
X121429729Y-75537848D01*
X121256807Y-75460857D01*
X121256802Y-75460855D01*
X121111000Y-75429865D01*
X121071646Y-75421500D01*
X120939500Y-75421500D01*
X120872461Y-75401815D01*
X120826706Y-75349011D01*
X120815500Y-75297500D01*
X120815500Y-73854000D01*
X120835185Y-73786961D01*
X120887989Y-73741206D01*
X120939500Y-73730000D01*
X121020000Y-73730000D01*
X121020000Y-72404000D01*
X121039685Y-72336961D01*
X121092489Y-72291206D01*
X121144000Y-72280000D01*
X121396000Y-72280000D01*
X121463039Y-72299685D01*
X121508794Y-72352489D01*
X121520000Y-72404000D01*
X121520000Y-73730000D01*
X121917828Y-73730000D01*
X121917844Y-73729999D01*
X121977372Y-73723598D01*
X121977379Y-73723596D01*
X122112086Y-73673354D01*
X122112093Y-73673350D01*
X122227187Y-73587190D01*
X122227190Y-73587187D01*
X122313350Y-73472093D01*
X122313354Y-73472086D01*
X122336076Y-73411166D01*
X122377947Y-73355232D01*
X122443411Y-73330815D01*
X122452245Y-73330499D01*
X122817872Y-73330499D01*
X122877483Y-73324091D01*
X122926665Y-73305746D01*
X122996355Y-73300761D01*
X123013333Y-73305747D01*
X123062508Y-73324088D01*
X123062511Y-73324088D01*
X123062517Y-73324091D01*
X123122127Y-73330500D01*
X123917872Y-73330499D01*
X123977483Y-73324091D01*
X124026665Y-73305746D01*
X124096355Y-73300761D01*
X124113333Y-73305747D01*
X124162508Y-73324088D01*
X124162511Y-73324088D01*
X124162517Y-73324091D01*
X124222127Y-73330500D01*
X125017872Y-73330499D01*
X125077483Y-73324091D01*
X125127382Y-73305479D01*
X125197069Y-73300494D01*
X125214048Y-73305479D01*
X125262628Y-73323598D01*
X125262627Y-73323598D01*
X125322155Y-73329999D01*
X125322172Y-73330000D01*
X125470000Y-73330000D01*
X125470000Y-72885845D01*
X125470356Y-72879211D01*
X125470499Y-72877880D01*
X125470500Y-72877873D01*
X125470499Y-71903998D01*
X125490183Y-71836961D01*
X125542987Y-71791206D01*
X125594499Y-71780000D01*
X125845500Y-71780000D01*
X125912539Y-71799685D01*
G37*
%TD.AperFunction*%
%TA.AperFunction,Conductor*%
G36*
X116724207Y-69200781D02*
G01*
X116730786Y-69206302D01*
X116730788Y-69206303D01*
X116736822Y-69210272D01*
X116736789Y-69210322D01*
X116743147Y-69214372D01*
X116743179Y-69214321D01*
X116749319Y-69218108D01*
X116749323Y-69218111D01*
X116784132Y-69234343D01*
X116818941Y-69250575D01*
X116867287Y-69274855D01*
X116887567Y-69285040D01*
X116887569Y-69285040D01*
X116894357Y-69287511D01*
X116894336Y-69287567D01*
X116901457Y-69290043D01*
X116901476Y-69289986D01*
X116908322Y-69292254D01*
X116908327Y-69292257D01*
X116908332Y-69292258D01*
X116908335Y-69292259D01*
X116983564Y-69307792D01*
X116983565Y-69307792D01*
X117058279Y-69325500D01*
X117058282Y-69325500D01*
X117058286Y-69325501D01*
X117065453Y-69326339D01*
X117065446Y-69326398D01*
X117072944Y-69327164D01*
X117072950Y-69327105D01*
X117080139Y-69327734D01*
X117080143Y-69327733D01*
X117080144Y-69327734D01*
X117156917Y-69325500D01*
X119781126Y-69325500D01*
X119848165Y-69345185D01*
X119868807Y-69361819D01*
X119892955Y-69385967D01*
X119892959Y-69385970D01*
X120037294Y-69474998D01*
X120037297Y-69474999D01*
X120037303Y-69475003D01*
X120198292Y-69528349D01*
X120297655Y-69538500D01*
X120521246Y-69538499D01*
X120588284Y-69558183D01*
X120634039Y-69610987D01*
X120643983Y-69680145D01*
X120614958Y-69743701D01*
X120596732Y-69760874D01*
X120548720Y-69797715D01*
X120548719Y-69797716D01*
X120527019Y-69825994D01*
X120521668Y-69832096D01*
X119313096Y-71040668D01*
X119306994Y-71046019D01*
X119278716Y-71067719D01*
X119195434Y-71176256D01*
X119182463Y-71193159D01*
X119121956Y-71339237D01*
X119121955Y-71339239D01*
X119101625Y-71493669D01*
X119101318Y-71496000D01*
X119101646Y-71498495D01*
X119105969Y-71531326D01*
X119106500Y-71539428D01*
X119106500Y-75398000D01*
X119086815Y-75465039D01*
X119034011Y-75510794D01*
X118982500Y-75522000D01*
X118566770Y-75522000D01*
X118499731Y-75502315D01*
X118453976Y-75449511D01*
X118444032Y-75380353D01*
X118468393Y-75322515D01*
X118494536Y-75288445D01*
X118555044Y-75142366D01*
X118570500Y-75024965D01*
X118575682Y-74985604D01*
X118571030Y-74950273D01*
X118570500Y-74942175D01*
X118570500Y-71992428D01*
X118571031Y-71984326D01*
X118575682Y-71948999D01*
X118575682Y-71948998D01*
X118559484Y-71825965D01*
X118555044Y-71792238D01*
X118494536Y-71646159D01*
X118485233Y-71634035D01*
X118481126Y-71628682D01*
X118449837Y-71587906D01*
X118398282Y-71520718D01*
X118370005Y-71499020D01*
X118363904Y-71493669D01*
X118256880Y-71386645D01*
X118099320Y-71229085D01*
X118093980Y-71222995D01*
X118072282Y-71194718D01*
X117946841Y-71098464D01*
X117928302Y-71090785D01*
X117800762Y-71037956D01*
X117800760Y-71037955D01*
X117740330Y-71030000D01*
X117644001Y-71017318D01*
X117644000Y-71017318D01*
X117608670Y-71021969D01*
X117600572Y-71022500D01*
X117512258Y-71022500D01*
X117445219Y-71002815D01*
X117420109Y-70981473D01*
X117391871Y-70950112D01*
X117391864Y-70950106D01*
X117238734Y-70838851D01*
X117238729Y-70838848D01*
X117065807Y-70761857D01*
X117065802Y-70761855D01*
X116901718Y-70726979D01*
X116880646Y-70722500D01*
X116691354Y-70722500D01*
X116691353Y-70722500D01*
X116670279Y-70726979D01*
X116600612Y-70721662D01*
X116544879Y-70679524D01*
X116520775Y-70613943D01*
X116520500Y-70605688D01*
X116520500Y-69295769D01*
X116540185Y-69228730D01*
X116592989Y-69182975D01*
X116662147Y-69173031D01*
X116724207Y-69200781D01*
G37*
%TD.AperFunction*%
%TA.AperFunction,Conductor*%
G36*
X113386681Y-75194106D02*
G01*
X113389154Y-75195534D01*
X113389159Y-75195536D01*
X113535238Y-75256044D01*
X113615708Y-75266638D01*
X113675889Y-75274561D01*
X113687519Y-75279706D01*
X113689361Y-75278523D01*
X113708109Y-75274561D01*
X113727329Y-75272030D01*
X113735428Y-75271500D01*
X114062125Y-75271500D01*
X114129164Y-75291185D01*
X114174919Y-75343989D01*
X114184863Y-75413147D01*
X114155838Y-75476703D01*
X114112561Y-75508779D01*
X114108069Y-75510779D01*
X114057633Y-75521500D01*
X113724296Y-75521500D01*
X113694337Y-75512703D01*
X113678810Y-75520019D01*
X113659704Y-75521500D01*
X113313706Y-75521500D01*
X113246667Y-75501815D01*
X113200912Y-75449011D01*
X113190767Y-75381316D01*
X113195500Y-75345361D01*
X113200682Y-75306000D01*
X113200682Y-75301493D01*
X113220367Y-75234454D01*
X113273171Y-75188699D01*
X113342329Y-75178755D01*
X113386681Y-75194106D01*
G37*
%TD.AperFunction*%
%TA.AperFunction,Conductor*%
G36*
X110337512Y-73499507D02*
G01*
X110390315Y-73545262D01*
X110410000Y-73612301D01*
X110410000Y-74927698D01*
X110390315Y-74994737D01*
X110337511Y-75040492D01*
X110268355Y-75050436D01*
X110195766Y-75040000D01*
X110195763Y-75040000D01*
X110124237Y-75040000D01*
X110124233Y-75040000D01*
X110051645Y-75050436D01*
X109982487Y-75040492D01*
X109929684Y-74994736D01*
X109910000Y-74927698D01*
X109910000Y-73612301D01*
X109929685Y-73545262D01*
X109982489Y-73499507D01*
X110051647Y-73489563D01*
X110124237Y-73500000D01*
X110124238Y-73500000D01*
X110195762Y-73500000D01*
X110195763Y-73500000D01*
X110268353Y-73489563D01*
X110337512Y-73499507D01*
G37*
%TD.AperFunction*%
%TA.AperFunction,Conductor*%
G36*
X114679426Y-68320828D02*
G01*
X114694309Y-68330393D01*
X114713758Y-68344952D01*
X114777669Y-68392796D01*
X114777671Y-68392797D01*
X114912517Y-68443091D01*
X114920062Y-68444874D01*
X114919523Y-68447151D01*
X114973287Y-68469408D01*
X115013147Y-68526793D01*
X115019500Y-68565975D01*
X115019500Y-70598500D01*
X114999815Y-70665539D01*
X114947011Y-70711294D01*
X114895500Y-70722500D01*
X114786354Y-70722500D01*
X114765282Y-70726979D01*
X114601197Y-70761855D01*
X114601192Y-70761857D01*
X114428270Y-70838848D01*
X114428265Y-70838851D01*
X114275129Y-70950111D01*
X114148465Y-71090785D01*
X114144645Y-71096044D01*
X114142802Y-71094705D01*
X114099807Y-71135710D01*
X114042976Y-71149500D01*
X113621202Y-71149500D01*
X113554163Y-71129815D01*
X113508408Y-71077011D01*
X113497881Y-71012540D01*
X113498903Y-71002815D01*
X113500460Y-70988000D01*
X113480674Y-70799744D01*
X113422179Y-70619716D01*
X113327533Y-70455784D01*
X113266600Y-70388111D01*
X113227350Y-70344519D01*
X113197120Y-70281527D01*
X113195500Y-70261547D01*
X113195500Y-68772081D01*
X113196031Y-68763980D01*
X113200682Y-68728654D01*
X113187030Y-68624956D01*
X113182386Y-68589683D01*
X113193151Y-68520649D01*
X113239531Y-68468393D01*
X113305325Y-68449499D01*
X114267871Y-68449499D01*
X114267872Y-68449499D01*
X114327483Y-68443091D01*
X114462331Y-68392796D01*
X114545689Y-68330393D01*
X114611153Y-68305977D01*
X114679426Y-68320828D01*
G37*
%TD.AperFunction*%
%TD*%
M02*
