%TF.GenerationSoftware,KiCad,Pcbnew,7.0.7*%
%TF.CreationDate,2023-08-18T08:54:36+02:00*%
%TF.ProjectId,uSD-Turbo,7553442d-5475-4726-926f-2e6b69636164,rev?*%
%TF.SameCoordinates,Original*%
%TF.FileFunction,Copper,L2,Bot*%
%TF.FilePolarity,Positive*%
%FSLAX46Y46*%
G04 Gerber Fmt 4.6, Leading zero omitted, Abs format (unit mm)*
G04 Created by KiCad (PCBNEW 7.0.7) date 2023-08-18 08:54:36*
%MOMM*%
%LPD*%
G01*
G04 APERTURE LIST*
%TA.AperFunction,ComponentPad*%
%ADD10R,1.700000X1.700000*%
%TD*%
%TA.AperFunction,ComponentPad*%
%ADD11O,1.700000X1.700000*%
%TD*%
%TA.AperFunction,ViaPad*%
%ADD12C,0.800000*%
%TD*%
%TA.AperFunction,Conductor*%
%ADD13C,0.500000*%
%TD*%
%TA.AperFunction,Conductor*%
%ADD14C,0.200000*%
%TD*%
G04 APERTURE END LIST*
D10*
%TO.P,J1,1,Pin_1*%
%TO.N,+5V*%
X110160000Y-62840000D03*
D11*
%TO.P,J1,2,Pin_2*%
%TO.N,CB1*%
X107620000Y-62840000D03*
%TO.P,J1,3,Pin_3*%
%TO.N,+5V*%
X110160000Y-65380000D03*
%TO.P,J1,4,Pin_4*%
%TO.N,CB2*%
X107620000Y-65380000D03*
%TO.P,J1,5,Pin_5*%
%TO.N,GND*%
X110160000Y-67920000D03*
%TO.P,J1,6,Pin_6*%
%TO.N,PB0*%
X107620000Y-67920000D03*
%TO.P,J1,7,Pin_7*%
%TO.N,GND*%
X110160000Y-70460000D03*
%TO.P,J1,8,Pin_8*%
%TO.N,PB1*%
X107620000Y-70460000D03*
%TO.P,J1,9,Pin_9*%
%TO.N,GND*%
X110160000Y-73000000D03*
%TO.P,J1,10,Pin_10*%
%TO.N,PB2*%
X107620000Y-73000000D03*
%TO.P,J1,11,Pin_11*%
%TO.N,GND*%
X110160000Y-75540000D03*
%TO.P,J1,12,Pin_12*%
%TO.N,PB3*%
X107620000Y-75540000D03*
%TO.P,J1,13,Pin_13*%
%TO.N,GND*%
X110160000Y-78080000D03*
%TO.P,J1,14,Pin_14*%
%TO.N,PB4*%
X107620000Y-78080000D03*
%TO.P,J1,15,Pin_15*%
%TO.N,GND*%
X110160000Y-80620000D03*
%TO.P,J1,16,Pin_16*%
%TO.N,unconnected-(J1-Pin_16-Pad16)*%
X107620000Y-80620000D03*
%TO.P,J1,17,Pin_17*%
%TO.N,GND*%
X110160000Y-83160000D03*
%TO.P,J1,18,Pin_18*%
%TO.N,unconnected-(J1-Pin_18-Pad18)*%
X107620000Y-83160000D03*
%TO.P,J1,19,Pin_19*%
%TO.N,GND*%
X110160000Y-85700000D03*
%TO.P,J1,20,Pin_20*%
%TO.N,unconnected-(J1-Pin_20-Pad20)*%
X107620000Y-85700000D03*
%TD*%
D12*
%TO.N,CB2*%
X112595000Y-70988000D03*
X114500000Y-77592000D03*
X112595000Y-73274000D03*
X116659000Y-78608000D03*
%TO.N,PB0*%
X111579000Y-70988000D03*
X111579000Y-72512000D03*
%TO.N,PB1*%
X116786000Y-71623000D03*
X114881000Y-71623000D03*
X113970000Y-64110000D03*
%TO.N,PB2*%
X108912000Y-81910000D03*
%TO.N,Net-(R2-Pad2)*%
X120977000Y-76322000D03*
X123009000Y-79751000D03*
X123009000Y-81275000D03*
X114500000Y-76322000D03*
%TO.N,GND*%
X125908000Y-65888000D03*
X119453000Y-69972000D03*
X117167000Y-69972000D03*
X122374000Y-85212000D03*
X122374000Y-74417000D03*
X114754000Y-84577000D03*
X113738000Y-69083000D03*
X134439000Y-85085000D03*
X119515500Y-79624000D03*
X124406000Y-66924000D03*
X114500000Y-69972000D03*
X119453000Y-66924000D03*
X128597000Y-85212000D03*
X128597000Y-74417000D03*
X134439000Y-74417000D03*
X113357000Y-75306000D03*
X118818000Y-75306000D03*
%TO.N,Net-(R3-Pad2)*%
X114500000Y-80132000D03*
X122247000Y-80513000D03*
%TD*%
D13*
%TO.N,+5V*%
X110160000Y-65380000D02*
X110160000Y-62840000D01*
D14*
%TO.N,CB2*%
X112595000Y-70988000D02*
X112595000Y-73274000D01*
X114500000Y-77592000D02*
X115897000Y-78608000D01*
X115897000Y-78608000D02*
X116659000Y-78608000D01*
%TO.N,PB0*%
X111579000Y-72512000D02*
X111579000Y-70988000D01*
%TO.N,PB1*%
X114881000Y-71623000D02*
X116786000Y-71623000D01*
X108890000Y-67563654D02*
X109803654Y-66650000D01*
X108890000Y-67920000D02*
X108890000Y-67563654D01*
X111430000Y-66650000D02*
X113970000Y-64110000D01*
X109803654Y-66650000D02*
X110160000Y-66650000D01*
X108890000Y-69190000D02*
X108890000Y-67920000D01*
X110160000Y-66650000D02*
X111430000Y-66650000D01*
X107620000Y-70460000D02*
X108890000Y-69190000D01*
%TO.N,PB2*%
X108912000Y-74292000D02*
X107620000Y-73000000D01*
X108912000Y-74292000D02*
X108912000Y-81910000D01*
%TO.N,Net-(R2-Pad2)*%
X114500000Y-76322000D02*
X120977000Y-76322000D01*
X123009000Y-79751000D02*
X123009000Y-81275000D01*
D13*
%TO.N,GND*%
X112341000Y-74290000D02*
X113357000Y-75306000D01*
X110160000Y-83160000D02*
X111577000Y-84577000D01*
X110160000Y-67920000D02*
X110160000Y-83160000D01*
X110160000Y-75540000D02*
X111410000Y-74290000D01*
X110180000Y-85720000D02*
X111833000Y-85720000D01*
X110160000Y-73000000D02*
X111450000Y-74290000D01*
X111410000Y-74290000D02*
X111450000Y-74290000D01*
X110160000Y-83160000D02*
X110160000Y-85700000D01*
X111577000Y-84577000D02*
X111833000Y-84577000D01*
X111450000Y-74290000D02*
X112341000Y-74290000D01*
X110160000Y-85700000D02*
X110180000Y-85720000D01*
D14*
%TO.N,Net-(R3-Pad2)*%
X114500000Y-80132000D02*
X115301500Y-80513000D01*
X115301500Y-80513000D02*
X122247000Y-80513000D01*
%TD*%
%TA.AperFunction,Conductor*%
%TO.N,GND*%
G36*
X138502539Y-61530185D02*
G01*
X138548294Y-61582989D01*
X138559500Y-61634500D01*
X138559500Y-86905500D01*
X138539815Y-86972539D01*
X138487011Y-87018294D01*
X138435500Y-87029500D01*
X111008208Y-87029500D01*
X110941169Y-87009815D01*
X110895414Y-86957011D01*
X110885470Y-86887853D01*
X110914495Y-86824297D01*
X110937084Y-86803926D01*
X111031078Y-86738109D01*
X111198105Y-86571082D01*
X111333600Y-86377578D01*
X111433429Y-86163492D01*
X111433432Y-86163486D01*
X111490636Y-85950000D01*
X110773347Y-85950000D01*
X110706308Y-85930315D01*
X110660553Y-85877511D01*
X110650609Y-85808353D01*
X110654369Y-85791067D01*
X110660000Y-85771888D01*
X110660000Y-85628111D01*
X110654369Y-85608933D01*
X110654370Y-85539064D01*
X110692145Y-85480286D01*
X110755701Y-85451262D01*
X110773347Y-85450000D01*
X111490636Y-85450000D01*
X111490635Y-85449999D01*
X111433432Y-85236513D01*
X111433429Y-85236507D01*
X111333600Y-85022422D01*
X111333599Y-85022420D01*
X111198113Y-84828926D01*
X111198108Y-84828920D01*
X111031082Y-84661894D01*
X110844968Y-84531575D01*
X110801344Y-84476998D01*
X110794151Y-84407499D01*
X110825673Y-84345145D01*
X110844968Y-84328425D01*
X111031082Y-84198105D01*
X111198105Y-84031082D01*
X111333600Y-83837578D01*
X111433429Y-83623492D01*
X111433432Y-83623486D01*
X111490636Y-83410000D01*
X110773347Y-83410000D01*
X110706308Y-83390315D01*
X110660553Y-83337511D01*
X110650609Y-83268353D01*
X110654369Y-83251067D01*
X110660000Y-83231888D01*
X110660000Y-83088111D01*
X110654369Y-83068933D01*
X110654370Y-82999064D01*
X110692145Y-82940286D01*
X110755701Y-82911262D01*
X110773347Y-82910000D01*
X111490636Y-82910000D01*
X111490635Y-82909999D01*
X111433432Y-82696513D01*
X111433429Y-82696507D01*
X111333600Y-82482422D01*
X111333599Y-82482420D01*
X111198113Y-82288926D01*
X111198108Y-82288920D01*
X111031082Y-82121894D01*
X110844968Y-81991575D01*
X110801344Y-81936998D01*
X110794151Y-81867499D01*
X110825673Y-81805145D01*
X110844968Y-81788425D01*
X111031082Y-81658105D01*
X111198105Y-81491082D01*
X111333600Y-81297578D01*
X111433429Y-81083492D01*
X111433432Y-81083486D01*
X111490636Y-80870000D01*
X110773347Y-80870000D01*
X110706308Y-80850315D01*
X110660553Y-80797511D01*
X110650609Y-80728353D01*
X110654369Y-80711067D01*
X110660000Y-80691888D01*
X110660000Y-80548111D01*
X110654369Y-80528933D01*
X110654370Y-80459064D01*
X110692145Y-80400286D01*
X110755701Y-80371262D01*
X110773347Y-80370000D01*
X111490636Y-80370000D01*
X111490635Y-80369999D01*
X111433432Y-80156513D01*
X111433429Y-80156507D01*
X111422001Y-80132000D01*
X113594540Y-80132000D01*
X113614326Y-80320256D01*
X113614327Y-80320259D01*
X113672818Y-80500277D01*
X113672821Y-80500284D01*
X113767467Y-80664216D01*
X113838211Y-80742785D01*
X113894129Y-80804888D01*
X114047265Y-80916148D01*
X114047270Y-80916151D01*
X114220192Y-80993142D01*
X114220197Y-80993144D01*
X114405354Y-81032500D01*
X114405355Y-81032500D01*
X114594644Y-81032500D01*
X114594646Y-81032500D01*
X114779803Y-80993144D01*
X114796368Y-80985768D01*
X114865613Y-80976481D01*
X114900040Y-80987055D01*
X114912849Y-80993144D01*
X114974481Y-81022442D01*
X114996731Y-81036057D01*
X114998659Y-81037536D01*
X115056108Y-81061332D01*
X115058964Y-81062602D01*
X115079242Y-81072241D01*
X115079250Y-81072243D01*
X115079251Y-81072244D01*
X115091501Y-81076206D01*
X115096138Y-81077912D01*
X115144738Y-81098044D01*
X115157592Y-81099736D01*
X115179565Y-81104692D01*
X115191909Y-81108685D01*
X115227809Y-81110518D01*
X115244430Y-81111368D01*
X115249363Y-81111818D01*
X115255539Y-81112630D01*
X115262139Y-81113500D01*
X115284568Y-81113500D01*
X115287731Y-81113581D01*
X115317760Y-81115114D01*
X115349817Y-81116752D01*
X115352198Y-81116242D01*
X115378132Y-81113500D01*
X121520742Y-81113500D01*
X121587781Y-81133185D01*
X121612891Y-81154527D01*
X121641128Y-81185887D01*
X121641135Y-81185893D01*
X121794265Y-81297148D01*
X121794270Y-81297151D01*
X121967191Y-81374142D01*
X121967193Y-81374142D01*
X121967197Y-81374144D01*
X122033781Y-81388296D01*
X122095260Y-81421488D01*
X122125929Y-81471268D01*
X122181818Y-81643277D01*
X122181821Y-81643284D01*
X122276467Y-81807216D01*
X122393324Y-81936998D01*
X122403129Y-81947888D01*
X122556265Y-82059148D01*
X122556270Y-82059151D01*
X122729192Y-82136142D01*
X122729197Y-82136144D01*
X122914354Y-82175500D01*
X122914355Y-82175500D01*
X123103644Y-82175500D01*
X123103646Y-82175500D01*
X123229179Y-82148817D01*
X123298843Y-82154133D01*
X123354576Y-82196270D01*
X123378682Y-82261849D01*
X123373748Y-82305670D01*
X123345871Y-82398786D01*
X123345869Y-82398794D01*
X123335668Y-82573933D01*
X123351058Y-82661210D01*
X123366135Y-82746711D01*
X123435623Y-82907804D01*
X123435624Y-82907806D01*
X123435626Y-82907809D01*
X123467153Y-82950156D01*
X123540390Y-83048530D01*
X123674786Y-83161302D01*
X123752488Y-83200325D01*
X123831562Y-83240038D01*
X123831563Y-83240038D01*
X123831567Y-83240040D01*
X124002279Y-83280500D01*
X124002282Y-83280500D01*
X124133701Y-83280500D01*
X124133709Y-83280500D01*
X124264255Y-83265241D01*
X124429117Y-83205237D01*
X124575696Y-83108830D01*
X124696092Y-82981218D01*
X124783812Y-82829281D01*
X124834130Y-82661210D01*
X124839213Y-82573933D01*
X131315668Y-82573933D01*
X131331058Y-82661210D01*
X131346135Y-82746711D01*
X131415623Y-82907804D01*
X131415624Y-82907806D01*
X131415626Y-82907809D01*
X131447153Y-82950156D01*
X131520390Y-83048530D01*
X131654786Y-83161302D01*
X131732488Y-83200325D01*
X131811562Y-83240038D01*
X131811563Y-83240038D01*
X131811567Y-83240040D01*
X131982279Y-83280500D01*
X131982282Y-83280500D01*
X132113701Y-83280500D01*
X132113709Y-83280500D01*
X132244255Y-83265241D01*
X132409117Y-83205237D01*
X132555696Y-83108830D01*
X132676092Y-82981218D01*
X132763812Y-82829281D01*
X132814130Y-82661210D01*
X132824331Y-82486065D01*
X132793865Y-82313289D01*
X132724377Y-82152196D01*
X132721861Y-82148817D01*
X132619609Y-82011469D01*
X132485214Y-81898698D01*
X132485212Y-81898697D01*
X132328437Y-81819961D01*
X132328433Y-81819960D01*
X132157721Y-81779500D01*
X132026291Y-81779500D01*
X131921854Y-81791707D01*
X131895743Y-81794759D01*
X131895740Y-81794760D01*
X131730884Y-81854762D01*
X131730880Y-81854764D01*
X131584306Y-81951167D01*
X131584305Y-81951168D01*
X131463910Y-82078778D01*
X131376188Y-82230718D01*
X131325870Y-82398789D01*
X131325869Y-82398794D01*
X131315668Y-82573933D01*
X124839213Y-82573933D01*
X124844331Y-82486065D01*
X124813865Y-82313289D01*
X124744377Y-82152196D01*
X124741861Y-82148817D01*
X124639609Y-82011469D01*
X124505214Y-81898698D01*
X124505212Y-81898697D01*
X124348437Y-81819961D01*
X124348433Y-81819960D01*
X124177721Y-81779500D01*
X124046291Y-81779500D01*
X123973965Y-81787953D01*
X123905096Y-81776185D01*
X123853520Y-81729049D01*
X123835615Y-81661513D01*
X123841641Y-81626474D01*
X123844874Y-81616521D01*
X123894674Y-81463256D01*
X123914460Y-81275000D01*
X123894674Y-81086744D01*
X123836179Y-80906716D01*
X123741533Y-80742784D01*
X123670788Y-80664214D01*
X123641350Y-80631519D01*
X123611120Y-80568527D01*
X123609500Y-80548547D01*
X123609500Y-80477452D01*
X123629185Y-80410413D01*
X123641350Y-80394480D01*
X123650253Y-80384592D01*
X123741533Y-80283216D01*
X123836179Y-80119284D01*
X123894674Y-79939256D01*
X123914460Y-79751000D01*
X123894674Y-79562744D01*
X123836179Y-79382716D01*
X123741533Y-79218784D01*
X123614871Y-79078112D01*
X123614870Y-79078111D01*
X123461734Y-78966851D01*
X123461729Y-78966848D01*
X123288807Y-78889857D01*
X123288802Y-78889855D01*
X123143001Y-78858865D01*
X123103646Y-78850500D01*
X122914354Y-78850500D01*
X122881897Y-78857398D01*
X122729197Y-78889855D01*
X122729192Y-78889857D01*
X122556270Y-78966848D01*
X122556265Y-78966851D01*
X122403129Y-79078111D01*
X122276466Y-79218785D01*
X122181821Y-79382715D01*
X122181819Y-79382719D01*
X122125929Y-79554731D01*
X122086491Y-79612406D01*
X122033781Y-79637702D01*
X121967195Y-79651856D01*
X121967192Y-79651857D01*
X121794270Y-79728848D01*
X121794265Y-79728851D01*
X121641135Y-79840106D01*
X121641128Y-79840112D01*
X121612891Y-79871473D01*
X121553405Y-79908121D01*
X121520742Y-79912500D01*
X115465613Y-79912500D01*
X115398574Y-79892815D01*
X115352819Y-79840011D01*
X115347682Y-79826818D01*
X115327178Y-79763714D01*
X115327177Y-79763712D01*
X115232534Y-79599785D01*
X115105870Y-79459111D01*
X114952734Y-79347851D01*
X114952729Y-79347848D01*
X114779807Y-79270857D01*
X114779802Y-79270855D01*
X114634001Y-79239865D01*
X114594646Y-79231500D01*
X114405354Y-79231500D01*
X114372897Y-79238398D01*
X114220197Y-79270855D01*
X114220192Y-79270857D01*
X114047270Y-79347848D01*
X114047265Y-79347851D01*
X113894129Y-79459111D01*
X113767466Y-79599785D01*
X113672821Y-79763715D01*
X113672818Y-79763722D01*
X113614327Y-79943740D01*
X113614326Y-79943744D01*
X113598029Y-80098804D01*
X113595750Y-80120492D01*
X113594540Y-80132000D01*
X111422001Y-80132000D01*
X111333600Y-79942422D01*
X111333599Y-79942420D01*
X111198113Y-79748926D01*
X111198108Y-79748920D01*
X111031082Y-79581894D01*
X110844968Y-79451575D01*
X110801344Y-79396998D01*
X110794151Y-79327499D01*
X110825673Y-79265145D01*
X110844968Y-79248425D01*
X111031082Y-79118105D01*
X111198105Y-78951082D01*
X111333600Y-78757578D01*
X111433429Y-78543492D01*
X111433432Y-78543486D01*
X111490636Y-78330000D01*
X110773347Y-78330000D01*
X110706308Y-78310315D01*
X110660553Y-78257511D01*
X110650609Y-78188353D01*
X110654369Y-78171067D01*
X110660000Y-78151888D01*
X110660000Y-78008111D01*
X110654369Y-77988933D01*
X110654370Y-77919064D01*
X110692145Y-77860286D01*
X110755701Y-77831262D01*
X110773347Y-77830000D01*
X111490636Y-77830000D01*
X111490635Y-77829999D01*
X111433432Y-77616513D01*
X111433429Y-77616507D01*
X111422001Y-77592000D01*
X113594540Y-77592000D01*
X113614326Y-77780256D01*
X113614327Y-77780259D01*
X113672818Y-77960277D01*
X113672821Y-77960284D01*
X113767467Y-78124216D01*
X113887487Y-78257511D01*
X113894129Y-78264888D01*
X114047265Y-78376148D01*
X114047270Y-78376151D01*
X114220192Y-78453142D01*
X114220197Y-78453144D01*
X114405354Y-78492500D01*
X114405355Y-78492500D01*
X114594645Y-78492500D01*
X114594646Y-78492500D01*
X114635466Y-78483823D01*
X114705132Y-78489138D01*
X114734180Y-78504830D01*
X115522443Y-79078111D01*
X115537539Y-79089090D01*
X115594159Y-79132536D01*
X115634974Y-79149441D01*
X115640859Y-79152250D01*
X115679673Y-79173349D01*
X115701272Y-79178545D01*
X115719707Y-79184539D01*
X115740238Y-79193044D01*
X115784031Y-79198809D01*
X115790442Y-79199998D01*
X115833401Y-79210334D01*
X115833401Y-79210333D01*
X115833402Y-79210334D01*
X115869075Y-79209417D01*
X115904749Y-79208500D01*
X115932742Y-79208500D01*
X115999781Y-79228185D01*
X116024891Y-79249527D01*
X116053128Y-79280887D01*
X116053135Y-79280893D01*
X116206265Y-79392148D01*
X116206270Y-79392151D01*
X116379192Y-79469142D01*
X116379197Y-79469144D01*
X116564354Y-79508500D01*
X116564355Y-79508500D01*
X116753644Y-79508500D01*
X116753646Y-79508500D01*
X116938803Y-79469144D01*
X117111730Y-79392151D01*
X117264871Y-79280888D01*
X117391533Y-79140216D01*
X117486179Y-78976284D01*
X117544674Y-78796256D01*
X117564460Y-78608000D01*
X117544674Y-78419744D01*
X117486179Y-78239716D01*
X117391533Y-78075784D01*
X117264871Y-77935112D01*
X117264870Y-77935111D01*
X117111734Y-77823851D01*
X117111729Y-77823848D01*
X116938807Y-77746857D01*
X116938802Y-77746855D01*
X116793001Y-77715865D01*
X116753646Y-77707500D01*
X116564354Y-77707500D01*
X116531897Y-77714398D01*
X116379197Y-77746855D01*
X116379192Y-77746857D01*
X116206271Y-77823848D01*
X116095840Y-77904080D01*
X116030033Y-77927559D01*
X115961979Y-77911733D01*
X115950022Y-77904044D01*
X115554666Y-77616513D01*
X115440520Y-77533498D01*
X115397881Y-77478149D01*
X115390133Y-77446175D01*
X115385674Y-77403748D01*
X115385674Y-77403745D01*
X115385672Y-77403740D01*
X115327179Y-77223716D01*
X115260658Y-77108499D01*
X115244186Y-77040600D01*
X115267039Y-76974573D01*
X115321960Y-76931382D01*
X115368046Y-76922500D01*
X120250742Y-76922500D01*
X120317781Y-76942185D01*
X120342891Y-76963527D01*
X120371128Y-76994887D01*
X120371135Y-76994893D01*
X120524265Y-77106148D01*
X120524270Y-77106151D01*
X120697192Y-77183142D01*
X120697197Y-77183144D01*
X120882354Y-77222500D01*
X120882355Y-77222500D01*
X121071644Y-77222500D01*
X121071646Y-77222500D01*
X121256803Y-77183144D01*
X121429730Y-77106151D01*
X121582871Y-76994888D01*
X121709533Y-76854216D01*
X121804179Y-76690284D01*
X121862674Y-76510256D01*
X121882460Y-76322000D01*
X121862674Y-76133744D01*
X121804179Y-75953716D01*
X121709533Y-75789784D01*
X121582871Y-75649112D01*
X121582863Y-75649106D01*
X121429734Y-75537851D01*
X121429729Y-75537848D01*
X121256807Y-75460857D01*
X121256802Y-75460855D01*
X121111000Y-75429865D01*
X121071646Y-75421500D01*
X120882354Y-75421500D01*
X120849897Y-75428398D01*
X120697197Y-75460855D01*
X120697192Y-75460857D01*
X120524270Y-75537848D01*
X120524265Y-75537851D01*
X120371135Y-75649106D01*
X120371128Y-75649112D01*
X120342891Y-75680473D01*
X120283405Y-75717121D01*
X120250742Y-75721500D01*
X115226258Y-75721500D01*
X115159219Y-75701815D01*
X115134109Y-75680473D01*
X115105871Y-75649112D01*
X115105864Y-75649106D01*
X114952734Y-75537851D01*
X114952729Y-75537848D01*
X114779807Y-75460857D01*
X114779802Y-75460855D01*
X114634001Y-75429865D01*
X114594646Y-75421500D01*
X114405354Y-75421500D01*
X114372897Y-75428398D01*
X114220197Y-75460855D01*
X114220192Y-75460857D01*
X114047270Y-75537848D01*
X114047265Y-75537851D01*
X113894129Y-75649111D01*
X113767466Y-75789785D01*
X113672821Y-75953715D01*
X113672818Y-75953722D01*
X113614327Y-76133740D01*
X113614326Y-76133744D01*
X113594540Y-76322000D01*
X113614326Y-76510256D01*
X113614327Y-76510259D01*
X113672818Y-76690277D01*
X113672821Y-76690284D01*
X113767467Y-76854216D01*
X113785305Y-76874027D01*
X113815535Y-76937018D01*
X113806910Y-77006354D01*
X113785308Y-77039968D01*
X113767466Y-77059784D01*
X113672821Y-77223715D01*
X113672818Y-77223722D01*
X113614327Y-77403740D01*
X113614326Y-77403744D01*
X113594540Y-77592000D01*
X111422001Y-77592000D01*
X111333600Y-77402422D01*
X111333599Y-77402420D01*
X111198113Y-77208926D01*
X111198108Y-77208920D01*
X111031082Y-77041894D01*
X110844968Y-76911575D01*
X110801344Y-76856998D01*
X110794151Y-76787499D01*
X110825673Y-76725145D01*
X110844968Y-76708425D01*
X111031082Y-76578105D01*
X111198105Y-76411082D01*
X111333600Y-76217578D01*
X111433429Y-76003492D01*
X111433432Y-76003486D01*
X111490636Y-75790000D01*
X110773347Y-75790000D01*
X110706308Y-75770315D01*
X110660553Y-75717511D01*
X110650609Y-75648353D01*
X110654369Y-75631067D01*
X110660000Y-75611888D01*
X110660000Y-75468111D01*
X110654369Y-75448933D01*
X110654370Y-75379064D01*
X110692145Y-75320286D01*
X110755701Y-75291262D01*
X110773347Y-75290000D01*
X111490636Y-75290000D01*
X111490635Y-75289999D01*
X111433432Y-75076513D01*
X111433429Y-75076507D01*
X111333600Y-74862422D01*
X111333599Y-74862420D01*
X111198113Y-74668926D01*
X111198108Y-74668920D01*
X111031082Y-74501894D01*
X110844968Y-74371575D01*
X110801344Y-74316998D01*
X110794151Y-74247499D01*
X110825673Y-74185145D01*
X110844968Y-74168425D01*
X111031082Y-74038105D01*
X111198105Y-73871082D01*
X111333600Y-73677578D01*
X111423823Y-73484095D01*
X111469995Y-73431656D01*
X111536205Y-73412500D01*
X111603068Y-73412500D01*
X111670107Y-73432185D01*
X111715862Y-73484989D01*
X111720999Y-73498182D01*
X111767818Y-73642277D01*
X111767821Y-73642284D01*
X111862467Y-73806216D01*
X111920873Y-73871082D01*
X111989129Y-73946888D01*
X112142265Y-74058148D01*
X112142270Y-74058151D01*
X112315192Y-74135142D01*
X112315197Y-74135144D01*
X112500354Y-74174500D01*
X112500355Y-74174500D01*
X112689644Y-74174500D01*
X112689646Y-74174500D01*
X112874803Y-74135144D01*
X113047730Y-74058151D01*
X113200871Y-73946888D01*
X113327533Y-73806216D01*
X113422179Y-73642284D01*
X113480674Y-73462256D01*
X113500460Y-73274000D01*
X113480674Y-73085744D01*
X113422179Y-72905716D01*
X113327533Y-72741784D01*
X113262180Y-72669202D01*
X113227350Y-72630519D01*
X113197120Y-72567527D01*
X113195500Y-72547547D01*
X113195500Y-71714452D01*
X113215185Y-71647413D01*
X113227350Y-71631480D01*
X113230101Y-71628425D01*
X113234986Y-71623000D01*
X113975540Y-71623000D01*
X113995326Y-71811256D01*
X113995327Y-71811259D01*
X114053818Y-71991277D01*
X114053821Y-71991284D01*
X114148467Y-72155216D01*
X114275128Y-72295887D01*
X114275129Y-72295888D01*
X114428265Y-72407148D01*
X114428270Y-72407151D01*
X114601192Y-72484142D01*
X114601197Y-72484144D01*
X114786354Y-72523500D01*
X114786355Y-72523500D01*
X114975644Y-72523500D01*
X114975646Y-72523500D01*
X115160803Y-72484144D01*
X115333730Y-72407151D01*
X115486871Y-72295888D01*
X115515108Y-72264527D01*
X115574595Y-72227879D01*
X115607258Y-72223500D01*
X116059742Y-72223500D01*
X116126781Y-72243185D01*
X116151891Y-72264527D01*
X116180128Y-72295887D01*
X116180135Y-72295893D01*
X116333265Y-72407148D01*
X116333270Y-72407151D01*
X116506192Y-72484142D01*
X116506197Y-72484144D01*
X116691354Y-72523500D01*
X116691355Y-72523500D01*
X116880644Y-72523500D01*
X116880646Y-72523500D01*
X117065803Y-72484144D01*
X117238730Y-72407151D01*
X117391871Y-72295888D01*
X117518533Y-72155216D01*
X117613179Y-71991284D01*
X117671674Y-71811256D01*
X117691460Y-71623000D01*
X117671674Y-71434744D01*
X117613179Y-71254716D01*
X117518533Y-71090784D01*
X117391871Y-70950112D01*
X117391863Y-70950106D01*
X117238734Y-70838851D01*
X117238729Y-70838848D01*
X117065807Y-70761857D01*
X117065802Y-70761855D01*
X116920000Y-70730865D01*
X116880646Y-70722500D01*
X116691354Y-70722500D01*
X116658897Y-70729398D01*
X116506197Y-70761855D01*
X116506192Y-70761857D01*
X116333270Y-70838848D01*
X116333265Y-70838851D01*
X116180135Y-70950106D01*
X116180128Y-70950112D01*
X116151891Y-70981473D01*
X116092405Y-71018121D01*
X116059742Y-71022500D01*
X115607258Y-71022500D01*
X115540219Y-71002815D01*
X115515109Y-70981473D01*
X115486871Y-70950112D01*
X115486864Y-70950106D01*
X115333734Y-70838851D01*
X115333729Y-70838848D01*
X115160807Y-70761857D01*
X115160802Y-70761855D01*
X115015001Y-70730865D01*
X114975646Y-70722500D01*
X114786354Y-70722500D01*
X114753897Y-70729398D01*
X114601197Y-70761855D01*
X114601192Y-70761857D01*
X114428270Y-70838848D01*
X114428265Y-70838851D01*
X114275129Y-70950111D01*
X114148466Y-71090785D01*
X114053821Y-71254715D01*
X114053818Y-71254722D01*
X114020819Y-71356284D01*
X113995326Y-71434744D01*
X113975540Y-71623000D01*
X113234986Y-71623000D01*
X113327533Y-71520216D01*
X113422179Y-71356284D01*
X113480674Y-71176256D01*
X113500460Y-70988000D01*
X113480674Y-70799744D01*
X113422179Y-70619716D01*
X113327533Y-70455784D01*
X113200871Y-70315112D01*
X113200870Y-70315111D01*
X113047734Y-70203851D01*
X113047729Y-70203848D01*
X112874807Y-70126857D01*
X112874802Y-70126855D01*
X112729000Y-70095865D01*
X112689646Y-70087500D01*
X112500354Y-70087500D01*
X112467897Y-70094398D01*
X112315197Y-70126855D01*
X112315192Y-70126857D01*
X112137436Y-70206001D01*
X112068186Y-70215286D01*
X112036564Y-70206001D01*
X111858807Y-70126857D01*
X111858802Y-70126855D01*
X111713000Y-70095865D01*
X111673646Y-70087500D01*
X111552961Y-70087500D01*
X111485922Y-70067815D01*
X111440167Y-70015011D01*
X111435339Y-70001583D01*
X111435285Y-70001603D01*
X111433429Y-69996507D01*
X111333600Y-69782422D01*
X111333599Y-69782420D01*
X111198113Y-69588926D01*
X111198108Y-69588920D01*
X111031082Y-69421894D01*
X110844968Y-69291575D01*
X110801344Y-69236998D01*
X110794151Y-69167499D01*
X110825673Y-69105145D01*
X110844968Y-69088425D01*
X111031082Y-68958105D01*
X111198105Y-68791082D01*
X111333600Y-68597578D01*
X111433429Y-68383492D01*
X111433432Y-68383486D01*
X111490636Y-68170000D01*
X110773347Y-68170000D01*
X110706308Y-68150315D01*
X110660553Y-68097511D01*
X110650609Y-68028353D01*
X110654369Y-68011067D01*
X110660000Y-67991888D01*
X110660000Y-67848111D01*
X110654369Y-67828933D01*
X110654370Y-67759064D01*
X110692145Y-67700286D01*
X110755701Y-67671262D01*
X110773347Y-67670000D01*
X111490636Y-67670000D01*
X111490635Y-67669999D01*
X111433432Y-67456513D01*
X111433431Y-67456512D01*
X111416472Y-67420143D01*
X111405980Y-67351066D01*
X111434499Y-67287281D01*
X111492975Y-67249041D01*
X111512663Y-67244799D01*
X111586762Y-67235044D01*
X111732841Y-67174536D01*
X111745811Y-67164583D01*
X111755764Y-67156947D01*
X111816182Y-67110585D01*
X111858282Y-67078282D01*
X111879984Y-67049998D01*
X111885310Y-67043923D01*
X113882416Y-65046819D01*
X113943740Y-65013334D01*
X113970098Y-65010500D01*
X114064644Y-65010500D01*
X114064646Y-65010500D01*
X114249803Y-64971144D01*
X114422730Y-64894151D01*
X114575871Y-64782888D01*
X114702533Y-64642216D01*
X114797179Y-64478284D01*
X114855674Y-64298256D01*
X114875460Y-64110000D01*
X114855674Y-63921744D01*
X114797179Y-63741716D01*
X114702533Y-63577784D01*
X114575871Y-63437112D01*
X114575870Y-63437111D01*
X114422734Y-63325851D01*
X114422729Y-63325848D01*
X114249807Y-63248857D01*
X114249802Y-63248855D01*
X114104000Y-63217865D01*
X114064646Y-63209500D01*
X113875354Y-63209500D01*
X113842897Y-63216398D01*
X113690197Y-63248855D01*
X113690192Y-63248857D01*
X113517270Y-63325848D01*
X113517265Y-63325851D01*
X113364129Y-63437111D01*
X113237466Y-63577785D01*
X113142821Y-63741715D01*
X113142818Y-63741722D01*
X113084327Y-63921740D01*
X113084326Y-63921744D01*
X113071104Y-64047546D01*
X113064540Y-64110002D01*
X113064540Y-64114861D01*
X113044855Y-64181900D01*
X113028221Y-64202542D01*
X111724432Y-65506331D01*
X111663109Y-65539816D01*
X111593417Y-65534832D01*
X111537484Y-65492960D01*
X111513067Y-65427496D01*
X111513223Y-65407842D01*
X111515659Y-65380000D01*
X111515659Y-65379999D01*
X111495063Y-65144596D01*
X111495063Y-65144592D01*
X111433903Y-64916337D01*
X111334035Y-64702171D01*
X111328424Y-64694158D01*
X111198496Y-64508600D01*
X111168173Y-64478277D01*
X111076567Y-64386671D01*
X111043084Y-64325351D01*
X111048068Y-64255659D01*
X111089939Y-64199725D01*
X111120915Y-64182810D01*
X111252331Y-64133796D01*
X111367546Y-64047546D01*
X111453796Y-63932331D01*
X111504091Y-63797483D01*
X111510500Y-63737873D01*
X111510499Y-61942128D01*
X111504091Y-61882517D01*
X111502810Y-61879083D01*
X111453797Y-61747671D01*
X111453795Y-61747668D01*
X111424707Y-61708811D01*
X111400290Y-61643347D01*
X111415142Y-61575074D01*
X111464547Y-61525668D01*
X111523974Y-61510500D01*
X138435500Y-61510500D01*
X138502539Y-61530185D01*
G37*
%TD.AperFunction*%
%TA.AperFunction,Conductor*%
G36*
X110337512Y-83659507D02*
G01*
X110390315Y-83705262D01*
X110410000Y-83772301D01*
X110410000Y-85087698D01*
X110390315Y-85154737D01*
X110337511Y-85200492D01*
X110268355Y-85210436D01*
X110195766Y-85200000D01*
X110195763Y-85200000D01*
X110124237Y-85200000D01*
X110124233Y-85200000D01*
X110051645Y-85210436D01*
X109982487Y-85200492D01*
X109929684Y-85154736D01*
X109910000Y-85087698D01*
X109910000Y-83772301D01*
X109929685Y-83705262D01*
X109982489Y-83659507D01*
X110051647Y-83649563D01*
X110124237Y-83660000D01*
X110124238Y-83660000D01*
X110195762Y-83660000D01*
X110195763Y-83660000D01*
X110268353Y-83649563D01*
X110337512Y-83659507D01*
G37*
%TD.AperFunction*%
%TA.AperFunction,Conductor*%
G36*
X110337512Y-81119507D02*
G01*
X110390315Y-81165262D01*
X110410000Y-81232301D01*
X110410000Y-82547698D01*
X110390315Y-82614737D01*
X110337511Y-82660492D01*
X110268355Y-82670436D01*
X110195766Y-82660000D01*
X110195763Y-82660000D01*
X110124237Y-82660000D01*
X110124233Y-82660000D01*
X110051645Y-82670436D01*
X109982487Y-82660492D01*
X109929684Y-82614736D01*
X109910000Y-82547698D01*
X109910000Y-81232301D01*
X109929685Y-81165262D01*
X109982489Y-81119507D01*
X110051647Y-81109563D01*
X110124237Y-81120000D01*
X110124238Y-81120000D01*
X110195762Y-81120000D01*
X110195763Y-81120000D01*
X110268353Y-81109563D01*
X110337512Y-81119507D01*
G37*
%TD.AperFunction*%
%TA.AperFunction,Conductor*%
G36*
X110337512Y-78579507D02*
G01*
X110390315Y-78625262D01*
X110410000Y-78692301D01*
X110410000Y-80007698D01*
X110390315Y-80074737D01*
X110337511Y-80120492D01*
X110268355Y-80130436D01*
X110195766Y-80120000D01*
X110195763Y-80120000D01*
X110124237Y-80120000D01*
X110124233Y-80120000D01*
X110051645Y-80130436D01*
X109982487Y-80120492D01*
X109929684Y-80074736D01*
X109910000Y-80007698D01*
X109910000Y-78692301D01*
X109929685Y-78625262D01*
X109982489Y-78579507D01*
X110051647Y-78569563D01*
X110124237Y-78580000D01*
X110124238Y-78580000D01*
X110195762Y-78580000D01*
X110195763Y-78580000D01*
X110268353Y-78569563D01*
X110337512Y-78579507D01*
G37*
%TD.AperFunction*%
%TA.AperFunction,Conductor*%
G36*
X110337512Y-76039507D02*
G01*
X110390315Y-76085262D01*
X110410000Y-76152301D01*
X110410000Y-77467698D01*
X110390315Y-77534737D01*
X110337511Y-77580492D01*
X110268355Y-77590436D01*
X110195766Y-77580000D01*
X110195763Y-77580000D01*
X110124237Y-77580000D01*
X110124233Y-77580000D01*
X110051645Y-77590436D01*
X109982487Y-77580492D01*
X109929684Y-77534736D01*
X109910000Y-77467698D01*
X109910000Y-76152301D01*
X109929685Y-76085262D01*
X109982489Y-76039507D01*
X110051647Y-76029563D01*
X110124237Y-76040000D01*
X110124238Y-76040000D01*
X110195762Y-76040000D01*
X110195763Y-76040000D01*
X110268353Y-76029563D01*
X110337512Y-76039507D01*
G37*
%TD.AperFunction*%
%TA.AperFunction,Conductor*%
G36*
X110337512Y-73499507D02*
G01*
X110390315Y-73545262D01*
X110410000Y-73612301D01*
X110410000Y-74927698D01*
X110390315Y-74994737D01*
X110337511Y-75040492D01*
X110268355Y-75050436D01*
X110195766Y-75040000D01*
X110195763Y-75040000D01*
X110124237Y-75040000D01*
X110124233Y-75040000D01*
X110051645Y-75050436D01*
X109982487Y-75040492D01*
X109929684Y-74994736D01*
X109910000Y-74927698D01*
X109910000Y-73612301D01*
X109929685Y-73545262D01*
X109982489Y-73499507D01*
X110051647Y-73489563D01*
X110124237Y-73500000D01*
X110124238Y-73500000D01*
X110195762Y-73500000D01*
X110195763Y-73500000D01*
X110268353Y-73489563D01*
X110337512Y-73499507D01*
G37*
%TD.AperFunction*%
%TA.AperFunction,Conductor*%
G36*
X110337512Y-70959507D02*
G01*
X110390315Y-71005262D01*
X110410000Y-71072301D01*
X110410000Y-72387698D01*
X110390315Y-72454737D01*
X110337511Y-72500492D01*
X110268355Y-72510436D01*
X110195766Y-72500000D01*
X110195763Y-72500000D01*
X110124237Y-72500000D01*
X110124233Y-72500000D01*
X110051645Y-72510436D01*
X109982487Y-72500492D01*
X109929684Y-72454736D01*
X109910000Y-72387698D01*
X109910000Y-71072301D01*
X109929685Y-71005262D01*
X109982489Y-70959507D01*
X110051647Y-70949563D01*
X110124237Y-70960000D01*
X110124238Y-70960000D01*
X110195762Y-70960000D01*
X110195763Y-70960000D01*
X110268353Y-70949563D01*
X110337512Y-70959507D01*
G37*
%TD.AperFunction*%
%TA.AperFunction,Conductor*%
G36*
X110337512Y-68419507D02*
G01*
X110390315Y-68465262D01*
X110410000Y-68532301D01*
X110410000Y-69847698D01*
X110390315Y-69914737D01*
X110337511Y-69960492D01*
X110268355Y-69970436D01*
X110195766Y-69960000D01*
X110195763Y-69960000D01*
X110124237Y-69960000D01*
X110124233Y-69960000D01*
X110051645Y-69970436D01*
X109982487Y-69960492D01*
X109929684Y-69914736D01*
X109910000Y-69847698D01*
X109910000Y-68532301D01*
X109929685Y-68465262D01*
X109982489Y-68419507D01*
X110051647Y-68409563D01*
X110124237Y-68420000D01*
X110124238Y-68420000D01*
X110195762Y-68420000D01*
X110195763Y-68420000D01*
X110268353Y-68409563D01*
X110337512Y-68419507D01*
G37*
%TD.AperFunction*%
%TD*%
M02*
