%TF.GenerationSoftware,KiCad,Pcbnew,7.0.7*%
%TF.CreationDate,2023-08-18T08:54:36+02:00*%
%TF.ProjectId,uSD-Turbo,7553442d-5475-4726-926f-2e6b69636164,rev?*%
%TF.SameCoordinates,Original*%
%TF.FileFunction,Soldermask,Top*%
%TF.FilePolarity,Negative*%
%FSLAX46Y46*%
G04 Gerber Fmt 4.6, Leading zero omitted, Abs format (unit mm)*
G04 Created by KiCad (PCBNEW 7.0.7) date 2023-08-18 08:54:36*
%MOMM*%
%LPD*%
G01*
G04 APERTURE LIST*
G04 Aperture macros list*
%AMRoundRect*
0 Rectangle with rounded corners*
0 $1 Rounding radius*
0 $2 $3 $4 $5 $6 $7 $8 $9 X,Y pos of 4 corners*
0 Add a 4 corners polygon primitive as box body*
4,1,4,$2,$3,$4,$5,$6,$7,$8,$9,$2,$3,0*
0 Add four circle primitives for the rounded corners*
1,1,$1+$1,$2,$3*
1,1,$1+$1,$4,$5*
1,1,$1+$1,$6,$7*
1,1,$1+$1,$8,$9*
0 Add four rect primitives between the rounded corners*
20,1,$1+$1,$2,$3,$4,$5,0*
20,1,$1+$1,$4,$5,$6,$7,0*
20,1,$1+$1,$6,$7,$8,$9,0*
20,1,$1+$1,$8,$9,$2,$3,0*%
G04 Aperture macros list end*
%ADD10RoundRect,0.150000X0.825000X0.150000X-0.825000X0.150000X-0.825000X-0.150000X0.825000X-0.150000X0*%
%ADD11R,1.500000X2.000000*%
%ADD12R,3.800000X2.000000*%
%ADD13RoundRect,0.225000X-0.225000X-0.250000X0.225000X-0.250000X0.225000X0.250000X-0.225000X0.250000X0*%
%ADD14RoundRect,0.225000X0.250000X-0.225000X0.250000X0.225000X-0.250000X0.225000X-0.250000X-0.225000X0*%
%ADD15R,0.700000X1.600000*%
%ADD16R,1.200000X1.400000*%
%ADD17R,1.200000X2.200000*%
%ADD18R,1.600000X1.400000*%
%ADD19RoundRect,0.200000X0.275000X-0.200000X0.275000X0.200000X-0.275000X0.200000X-0.275000X-0.200000X0*%
%ADD20RoundRect,0.200000X-0.275000X0.200000X-0.275000X-0.200000X0.275000X-0.200000X0.275000X0.200000X0*%
%ADD21RoundRect,0.200000X-0.200000X-0.275000X0.200000X-0.275000X0.200000X0.275000X-0.200000X0.275000X0*%
%ADD22RoundRect,0.200000X0.200000X0.275000X-0.200000X0.275000X-0.200000X-0.275000X0.200000X-0.275000X0*%
%ADD23R,1.700000X1.700000*%
%ADD24O,1.700000X1.700000*%
%ADD25RoundRect,0.218750X0.256250X-0.218750X0.256250X0.218750X-0.256250X0.218750X-0.256250X-0.218750X0*%
G04 APERTURE END LIST*
D10*
%TO.C,U1*%
X118245000Y-83942000D03*
X118245000Y-82672000D03*
X118245000Y-81402000D03*
X118245000Y-80132000D03*
X118245000Y-78862000D03*
X118245000Y-77592000D03*
X118245000Y-76322000D03*
X113295000Y-76322000D03*
X113295000Y-77592000D03*
X113295000Y-78862000D03*
X113295000Y-80132000D03*
X113295000Y-81402000D03*
X113295000Y-82672000D03*
X113295000Y-83942000D03*
%TD*%
D11*
%TO.C,U2*%
X118070000Y-66949000D03*
X115770000Y-66949000D03*
D12*
X115770000Y-73249000D03*
D11*
X113470000Y-66949000D03*
%TD*%
D13*
%TO.C,C2*%
X116011000Y-64511000D03*
X117561000Y-64511000D03*
%TD*%
D14*
%TO.C,C3*%
X125930000Y-68588000D03*
X125930000Y-67038000D03*
%TD*%
D15*
%TO.C,XS1*%
X131220000Y-72030000D03*
X130120000Y-72030000D03*
X129020000Y-72030000D03*
X127920000Y-72030000D03*
X126820000Y-72030000D03*
D16*
X121270000Y-72530000D03*
D17*
X121270000Y-82130000D03*
D15*
X125720000Y-72030000D03*
D18*
X135870000Y-72530000D03*
D17*
X136770000Y-82130000D03*
D15*
X124620000Y-72030000D03*
X123520000Y-72030000D03*
X122420000Y-72030000D03*
%TD*%
D14*
%TO.C,C5*%
X120596000Y-68588000D03*
X120596000Y-67038000D03*
%TD*%
D19*
%TO.C,R5*%
X112976000Y-64574000D03*
X112976000Y-62924000D03*
%TD*%
D20*
%TO.C,R4*%
X134693000Y-63559000D03*
X134693000Y-65209000D03*
%TD*%
D21*
%TO.C,R2*%
X129042000Y-68194000D03*
X130692000Y-68194000D03*
%TD*%
D22*
%TO.C,R1*%
X118373000Y-85466000D03*
X116723000Y-85466000D03*
%TD*%
D23*
%TO.C,J1*%
X110160000Y-62840000D03*
D24*
X107620000Y-62840000D03*
X110160000Y-65380000D03*
X107620000Y-65380000D03*
X110160000Y-67920000D03*
X107620000Y-67920000D03*
X110160000Y-70460000D03*
X107620000Y-70460000D03*
X110160000Y-73000000D03*
X107620000Y-73000000D03*
X110160000Y-75540000D03*
X107620000Y-75540000D03*
X110160000Y-78080000D03*
X107620000Y-78080000D03*
X110160000Y-80620000D03*
X107620000Y-80620000D03*
X110160000Y-83160000D03*
X107620000Y-83160000D03*
X110160000Y-85700000D03*
X107620000Y-85700000D03*
%TD*%
D13*
%TO.C,C4*%
X113217000Y-85466000D03*
X114767000Y-85466000D03*
%TD*%
D25*
%TO.C,D1*%
X136344000Y-65171500D03*
X136344000Y-63596500D03*
%TD*%
D21*
%TO.C,R3*%
X129042000Y-69845000D03*
X130692000Y-69845000D03*
%TD*%
D13*
%TO.C,C1*%
X116011000Y-62860000D03*
X117561000Y-62860000D03*
%TD*%
M02*
